<svg width="188" height="185" viewBox="0 0 188 185" fill="none" xmlns="http://www.w3.org/2000/svg">
<path d="M40.2808 72.0572V72.0606L37.2361 74.4333L16.2983 78.7703C15.6539 79.0133 15.0672 79.3723 14.5716 79.8267C14.076 80.2811 13.6812 80.8221 13.4098 81.4187C12.8618 82.6238 12.8495 83.9824 13.3758 85.1959C13.6364 85.7967 14.0213 86.3438 14.5086 86.8059C14.996 87.2681 15.5761 87.6361 16.216 87.8892C17.5084 88.4002 18.9655 88.4117 20.2668 87.921L33.6034 85.8274C34.3421 85.713 35.0716 85.5515 35.7866 85.3439C36.0677 85.2656 36.3453 85.1771 36.6191 85.0852C37.8044 80.2692 39.4691 75.5669 41.5915 71.0393L40.2808 72.0572Z" fill="#2F2E41"/>
<path d="M33.6824 179.799L38.1585 179.799L40.2878 163.701L33.6816 163.701L33.6824 179.799Z" fill="#FFB8B8"/>
<path d="M46.79 184.355L32.7229 184.355L32.7227 179.288L41.3548 179.287C42.7962 179.287 44.1787 179.821 45.198 180.771C46.2173 181.722 46.79 183.011 46.79 184.355Z" fill="#2F2E41"/>
<path d="M11.4119 179.799L15.888 179.799L18.0173 163.701L11.4111 163.701L11.4119 179.799Z" fill="#FFB8B8"/>
<path d="M24.5205 184.355L10.4534 184.355L10.4532 179.288L19.0853 179.287C20.5267 179.287 21.9091 179.821 22.9285 180.771C23.9478 181.722 24.5204 183.011 24.5205 184.355Z" fill="#2F2E41"/>
<path d="M34.9061 114.188L38.8406 143.256C39.3815 147.252 39.7599 151.263 39.9759 155.289L41.0359 175.056C41.0458 175.241 41.0154 175.425 40.9466 175.598C40.8777 175.771 40.7719 175.929 40.6355 176.063C40.4991 176.197 40.3349 176.303 40.1531 176.376C39.9712 176.449 39.7753 176.486 39.5774 176.486H33.6059C33.2565 176.486 32.9188 176.369 32.6539 176.157C32.389 175.945 32.2145 175.651 32.1621 175.329L26.7916 142.337C26.7657 142.178 26.6802 142.033 26.5504 141.927C26.4205 141.821 26.2546 141.761 26.0821 141.758C25.9096 141.756 25.7416 141.81 25.6079 141.912C25.4743 142.014 25.3836 142.156 25.3519 142.314L18.882 174.626C18.818 174.917 18.654 175.18 18.4151 175.375C18.1761 175.571 17.8752 175.689 17.5581 175.71L12.0621 176.035C11.858 176.049 11.6531 176.023 11.4606 175.959C11.2681 175.894 11.0923 175.792 10.9447 175.66C10.797 175.528 10.6807 175.369 10.6034 175.192C10.5261 175.015 10.4894 174.826 10.4958 174.635L12.2706 121.678L34.9061 114.188Z" fill="#2F2E41"/>
<path d="M17.4743 72.786C22.4266 72.786 26.4412 69.0425 26.4412 64.4248C26.4412 59.807 22.4266 56.0636 17.4743 56.0636C12.522 56.0636 8.50732 59.807 8.50732 64.4248C8.50732 69.0425 12.522 72.786 17.4743 72.786Z" fill="#FFB8B8"/>
<path d="M10.4454 122.359C12.636 127.125 22.1282 130.529 24.3188 123.72C26.0128 118.457 32.7231 116.245 35.6839 115.513C36.0562 115.42 36.3744 115.195 36.5699 114.885C36.7653 114.575 36.8221 114.207 36.7282 113.858L28.4515 83.5433C27.9695 81.7774 27.0093 80.1565 25.6631 78.8356C24.3169 77.5148 22.6296 76.5382 20.7627 75.9995C14.184 74.0999 7.24736 78.0114 6.13373 84.3467C5.82958 86.1232 5.63578 87.9145 5.5533 89.7118C4.8668 103.087 9.00327 119.22 10.4454 122.359Z" fill="#3F3D56"/>
<path d="M10.6691 71.2636C10.8622 71.3704 11.0791 71.4342 11.3029 71.4503C11.5267 71.4664 11.7515 71.4342 11.9599 71.3562C12.1683 71.2783 12.3546 71.1567 12.5044 71.0008C12.6543 70.8449 12.7637 70.659 12.8241 70.4574L12.8291 70.4384C12.9919 69.8038 12.8567 69.1411 12.81 68.4901C12.7633 67.839 12.8316 67.1239 13.3072 66.6452C14.1936 65.7529 15.7706 66.2259 17.0524 66.0003C17.8032 65.844 18.4672 65.438 18.9201 64.8582C19.373 64.2784 19.5838 63.5646 19.5131 62.8504C19.4949 62.7151 19.4662 62.5796 19.4341 62.4442C19.354 62.1012 19.3602 61.7455 19.4522 61.4051C19.5443 61.0646 19.7197 60.7487 19.9648 60.4822C20.2098 60.2156 20.5177 60.0056 20.8645 59.8687C21.2112 59.7318 21.5872 59.6717 21.963 59.6931C23.2584 59.7622 24.6566 60.1282 25.7284 59.2335C26.1213 58.8806 26.394 58.4277 26.5126 57.9312C26.6312 57.4347 26.5904 56.9166 26.3952 56.4416C25.7832 54.7945 24.0536 53.9322 22.3421 53.4582C20.2252 52.8879 17.9986 52.7646 15.8243 53.0973C13.6499 53.43 11.5824 54.2103 9.77197 55.3815C8.69087 56.092 7.68125 56.9848 7.22047 58.1408C6.75968 59.2969 6.98199 60.7554 8.02102 61.5186C7.21562 62.3137 6.64847 63.2922 6.37639 64.3561C6.10431 65.42 6.13687 66.5319 6.47079 67.5803C6.98399 69.1223 9.43327 70.6006 10.6691 71.2636Z" fill="#2F2E41"/>
<path d="M150.631 84.171L147.728 84.154L146.177 84.1472L137.287 69.6553C137.361 69.5037 137.426 69.348 137.48 69.1889C138.47 66.343 135.859 64.3856 133.373 64.4264C133.09 64.4261 132.808 64.457 132.533 64.5183C137.431 72.782 140.715 81.7911 142.234 91.1259C142.486 91.1925 142.743 91.2403 143.004 91.2689C144.36 91.3829 145.726 91.3394 147.071 91.1395C148.882 90.9251 150.594 90.6221 151.507 90.6868L150.631 84.171Z" fill="#A0616A"/>
<path d="M140.357 179.866H135.882L133.752 163.768L140.358 163.768L140.357 179.866Z" fill="#A0616A"/>
<path d="M132.684 179.354H141.316V184.422H127.249C127.249 183.756 127.39 183.097 127.663 182.482C127.936 181.868 128.336 181.309 128.841 180.838C129.346 180.368 129.945 179.994 130.604 179.74C131.264 179.485 131.97 179.354 132.684 179.354Z" fill="#2F2E41"/>
<path d="M172.119 179.866H167.643L165.514 163.768L172.12 163.768L172.119 179.866Z" fill="#A0616A"/>
<path d="M164.446 179.354H173.078V184.422H159.011C159.011 183.756 159.152 183.097 159.425 182.482C159.698 181.868 160.098 181.309 160.603 180.838C161.108 180.368 161.707 179.994 162.366 179.74C163.026 179.485 163.733 179.354 164.446 179.354Z" fill="#2F2E41"/>
<path d="M140.432 169.896C140.384 169.896 140.335 169.894 140.286 169.89L133.951 169.417C133.7 169.398 133.455 169.331 133.233 169.22C133.011 169.109 132.816 168.956 132.66 168.771C132.505 168.586 132.392 168.373 132.329 168.146C132.266 167.918 132.254 167.681 132.294 167.449L141.899 112.055L142.543 104.242C142.571 103.877 142.726 103.53 142.984 103.254C143.241 102.977 143.588 102.786 143.972 102.71L153.633 100.739C153.988 100.665 154.359 100.693 154.697 100.818C155.036 100.943 155.326 101.16 155.53 101.441L157.885 104.651C158.81 105.899 159.816 107.094 160.896 108.229C162.567 110.003 165.409 113.944 165.663 120.394C165.732 122.512 165.968 124.624 166.37 126.71L174.147 165.777C174.187 166.006 174.175 166.24 174.114 166.465C174.053 166.69 173.943 166.901 173.791 167.085C173.639 167.268 173.449 167.421 173.231 167.534C173.014 167.647 172.774 167.717 172.526 167.74L166.521 168.164C166.092 168.203 165.661 168.099 165.306 167.87C164.952 167.64 164.696 167.3 164.586 166.911L153.934 129.975C153.913 129.902 153.867 129.838 153.803 129.793C153.739 129.747 153.661 129.723 153.58 129.723C153.5 129.723 153.422 129.748 153.358 129.794C153.295 129.839 153.249 129.903 153.228 129.976L142.196 168.631C142.092 168.994 141.863 169.314 141.544 169.542C141.225 169.771 140.834 169.895 140.432 169.896Z" fill="#2F2E41"/>
<path d="M157.278 75.6352C162.23 75.6352 166.245 71.8918 166.245 67.274C166.245 62.6563 162.23 58.9128 157.278 58.9128C152.326 58.9128 148.311 62.6563 148.311 67.274C148.311 71.8918 152.326 75.6352 157.278 75.6352Z" fill="#A0616A"/>
<path d="M142.08 105.499L141.894 93.5586C141.211 85.922 144.838 81.9123 148.001 79.8954C148.817 79.382 149.736 79.0283 150.703 78.8558C151.669 78.6832 152.664 78.6955 153.625 78.8917L160.682 80.3143C161.665 80.5139 162.594 80.8973 163.413 81.4413C164.232 81.9853 164.924 82.6785 165.448 83.4791C165.949 84.2345 166.278 85.0779 166.414 85.9568C166.551 86.8357 166.492 87.7314 166.241 88.5882C165.751 90.1919 164.664 91.5801 163.175 92.5037C157.111 96.4951 156.684 103.2 156.68 103.267L156.673 103.406L142.08 105.499Z" fill="#3F3D56"/>
<path d="M146.439 95.7605L141.436 92.3364C141.085 92.0958 140.851 91.7352 140.785 91.3337C140.719 90.9323 140.826 90.5228 141.083 90.1951L147.455 82.0988C147.824 81.6301 148.288 81.2338 148.821 80.9323C149.354 80.6309 149.946 80.4303 150.562 80.3421C151.178 80.2538 151.807 80.2796 152.412 80.418C153.018 80.5563 153.588 80.8046 154.09 81.1485C154.593 81.4924 155.018 81.9252 155.341 82.4223C155.664 82.9194 155.879 83.4709 155.974 84.0455C156.068 84.62 156.04 85.2063 155.892 85.7708C155.743 86.3353 155.477 86.867 155.108 87.3356L148.736 95.4318C148.478 95.759 148.091 95.9773 147.661 96.0389C147.23 96.1005 146.791 96.0004 146.439 95.7605Z" fill="#3F3D56"/>
<path d="M155.099 65.1843C153.831 65.5584 152.515 65.7697 151.186 65.8125C149.859 65.7985 148.479 65.4051 147.582 64.4919C146.309 63.195 146.325 61.082 147.311 59.5828C148.297 58.0836 150.066 57.1496 151.895 56.722C153.724 56.2943 155.635 56.3145 157.521 56.3382C159.76 54.8159 163.025 55.0475 165.323 56.492C167.621 57.9365 169.025 60.3851 169.621 62.9087C170.217 65.4322 170.087 68.0522 169.861 70.6277C169.737 72.039 169.864 73.8713 171.31 74.304C172.223 74.5771 173.209 74.0761 173.863 73.4229C174.517 72.7697 174.973 71.9581 175.657 71.3317C177.114 69.9969 179.451 69.7263 181.375 70.364C183.3 71.0017 184.835 72.4219 185.917 74.0368C187.394 76.24 188.115 78.8105 187.985 81.4057C187.855 84.0009 186.879 86.4974 185.189 88.5625C183.498 90.6277 181.173 92.1632 178.522 92.9646C175.872 93.766 173.023 93.795 170.354 93.0479C165.417 91.6655 161.689 87.78 159.29 83.5251C156.215 78.0415 154.942 71.8338 155.633 65.6792L155.099 65.1843Z" fill="#2F2E41"/>
<path d="M160.2 84.4468L149.532 83.0647C149.141 83.0144 148.744 83.0968 148.413 83.2968C148.082 83.4967 147.839 83.801 147.729 84.154C147.706 84.2254 147.689 84.2982 147.677 84.3719L146.823 90.1012C146.766 90.503 146.88 90.9099 147.142 91.2336C147.403 91.5573 147.791 91.7718 148.222 91.8306L158.889 93.2127C160.136 93.3748 161.401 93.0684 162.405 92.361C163.409 91.6537 164.071 90.6032 164.245 89.4408C164.419 88.2784 164.09 87.0992 163.332 86.1626C162.573 85.226 161.447 84.6088 160.2 84.4468V84.4468Z" fill="#3F3D56"/>
<g filter="url(#filter0_d)">
<path d="M142.258 73.2135V73.5021C142.251 74.2269 142.228 74.9485 142.189 75.6668C141.492 87.9594 135.583 99.5473 125.674 108.056C115.764 116.565 102.604 121.349 88.8896 121.43C75.1757 121.51 61.9467 116.88 51.9138 108.489C41.8809 100.097 35.8039 88.5798 34.9281 76.2965C34.855 75.2765 34.8184 74.2488 34.8184 73.2135C34.7992 63.2277 38.2523 53.4853 44.6963 45.3448C45.2116 44.6889 45.7476 44.0449 46.3042 43.413C46.688 42.9735 47.0826 42.5439 47.481 42.1175C56.5493 32.4756 69.4672 26.4078 83.4631 25.2158C97.459 24.0238 111.418 27.8026 122.345 35.7415C122.992 36.2106 123.628 36.696 124.249 37.1912C124.746 37.5881 125.235 37.9937 125.715 38.408C135.167 46.5227 140.985 57.4607 142.072 69.1596C142.196 70.4978 142.258 71.8491 142.258 73.2135Z" fill="#48BFE3"/>
</g>
<path d="M46.3043 43.4129C46.3307 43.4228 46.3553 43.4361 46.3774 43.4523C46.6661 43.6655 46.3043 44.0754 46.3482 44.4133C46.3993 44.8462 47.0425 44.9413 47.5286 44.984C48.0146 45.0299 48.6285 45.3808 48.3983 45.7678C47.1777 46.145 45.9425 45.7744 44.6964 45.3447C38.2523 53.4852 34.7992 63.2274 34.8184 73.2132C34.8184 74.2496 34.855 75.2773 34.9281 76.2962C35.0302 76.3631 35.1421 76.4172 35.2606 76.4569C35.6261 76.5815 36.05 76.5586 36.3862 76.7357C36.653 76.8767 36.832 77.126 37.0988 77.2572C37.8626 77.6311 38.9224 76.9128 39.635 77.3589C39.8192 77.5094 39.9936 77.6693 40.1576 77.8377C40.8154 78.3494 41.8971 78.005 42.6572 78.3887C43.1469 78.6347 43.3991 79.1267 43.6622 79.5727C44.3163 80.6879 45.3761 81.7833 46.7758 81.8719C47.2172 81.8537 47.6595 81.8668 48.0986 81.9112C48.5299 81.9998 48.9538 82.3376 48.8844 82.7279C48.7638 83.4002 49.1329 84.1349 49.0342 84.8073C48.8551 86.0372 46.9146 86.5751 46.7502 87.805C46.7496 88.0757 46.7325 88.3461 46.699 88.6151C46.6113 88.9366 46.3409 89.1989 46.2458 89.5204C46.0631 90.1271 46.5492 90.7339 47.0791 91.1406C47.6126 91.5506 48.2485 91.9048 48.5408 92.4755C48.8478 93.0822 48.698 93.7874 48.7966 94.4466C49.0159 95.8865 50.4009 96.9524 51.8262 97.6412C52.2829 97.8125 52.6885 98.0776 53.0102 98.4152C53.3757 98.8908 53.3391 99.5172 53.4634 100.085C53.763 101.472 55.064 102.617 55.1005 104.03C55.1261 105.037 54.5049 105.949 54.1321 106.897C53.7487 107.89 53.6347 108.952 53.7996 109.993C55.8833 111.579 58.0981 113.021 60.4251 114.306C60.5516 114.138 60.6444 113.951 60.6992 113.755C60.7434 113.537 60.7128 113.313 60.6117 113.112C60.5105 112.91 60.3435 112.741 60.1327 112.627C60.5255 112.493 60.8828 112.288 61.1815 112.023C61.3283 111.888 61.4253 111.715 61.4593 111.528C61.4932 111.342 61.4626 111.15 61.3716 110.98C62.0148 111.052 62.7785 111.088 63.2024 110.646C63.5423 110.291 63.5204 109.76 63.3852 109.311C63.25 108.858 63.0234 108.422 63.0197 107.953C64.5099 108.018 66.0035 107.973 67.4854 107.818C67.271 107.17 66.7834 106.621 66.126 106.29C66.7984 106.188 67.4087 105.467 67.6207 104.886C67.804 104.294 67.814 103.669 67.6499 103.072C67.5991 102.919 67.5915 102.757 67.628 102.6C67.7361 102.392 67.9261 102.227 68.1615 102.138C69.2725 101.564 70.3834 100.991 71.4944 100.419C71.6926 100.329 71.8729 100.211 72.0279 100.068C72.3751 99.6976 72.3239 99.1433 72.1448 98.6874C71.9658 98.2315 71.6807 97.8018 71.6113 97.323C71.4067 95.8897 73.1169 94.8599 73.6943 93.5086C73.8906 92.9692 73.9965 92.4065 74.0086 91.8392C74.0561 91.2291 74.0598 90.524 73.5408 90.1337C73.0402 89.7565 72.2618 89.8418 71.7392 89.4908C71.2605 89.1694 71.096 88.5495 70.5734 88.2904C70.0984 88.0543 69.5063 88.2052 68.9764 88.0936C68.0482 87.9001 67.4635 86.9392 66.5134 86.8506C65.9798 86.7981 65.3732 87.0343 64.9346 86.7555C64.5473 86.5062 64.5327 86.011 64.4596 85.5912C64.3298 84.9373 63.9801 84.3347 63.4574 83.8644C62.9348 83.3942 62.2643 83.0788 61.536 82.9608C60.9842 82.882 60.3849 82.9116 59.9134 82.6393C59.4384 82.3638 59.2228 81.8489 58.8464 81.4652C58.247 80.8518 57.2969 80.6321 56.4088 80.4452C55.2029 80.1926 53.9981 79.939 52.7946 79.6842C52.1551 79.5465 51.3292 79.4743 50.982 79.9794C50.8793 80.1715 50.8079 80.3758 50.77 80.5862C50.6395 80.9647 50.3792 81.2966 50.0261 81.5345C49.6731 81.7724 49.2454 81.9043 48.804 81.9112C48.5018 81.4481 48.0122 81.1074 47.4372 80.9601C47.0615 80.9035 46.6904 80.8246 46.3263 80.7239C46.1361 80.6403 45.967 80.5228 45.8292 80.3785C45.6914 80.2342 45.5879 80.0662 45.5249 79.8847C45.462 79.7033 45.4409 79.5122 45.4631 79.3232C45.4853 79.1342 45.5502 78.9513 45.6538 78.7856C45.8611 78.4527 45.9408 78.068 45.8807 77.6906C45.8206 77.3131 45.6241 76.9638 45.3213 76.6963C44.7073 76.2011 43.8193 76.0797 42.9934 76.1289C42.7778 75.7058 43.1396 75.2303 43.527 74.922C43.918 74.6169 44.3894 74.3152 44.4735 73.856C44.6087 73.1345 43.5818 72.5867 42.8034 72.7999C42.025 73.0164 41.528 73.6953 41.1991 74.3644C41.0396 74.7592 40.822 75.1331 40.5522 75.4762C40.414 75.646 40.2261 75.7781 40.0094 75.858C39.7927 75.9379 39.5556 75.9624 39.3244 75.9289C38.6812 75.7813 38.4363 75.0958 38.2938 74.5186C38.0654 73.747 37.9499 72.9521 37.9503 72.1538C37.9559 71.3477 38.3126 70.5754 38.9443 70.0023C40.0077 69.1233 41.6449 69.2086 43.0811 69.3496C42.9273 69.1654 42.8535 68.9373 42.8737 68.7078C42.8939 68.4784 43.0066 68.2634 43.1907 68.1033C43.3829 67.9501 43.6139 67.8414 43.8635 67.7865C44.1132 67.7316 44.374 67.7323 44.6233 67.7884C45.0563 67.8689 45.4464 68.078 45.7306 68.382C46.1399 68.8281 46.2568 69.4349 46.5638 69.94C46.8744 70.4483 47.5688 70.8813 48.1352 70.609C48.6285 70.3729 48.7053 69.7628 48.5847 69.2742C48.4604 68.7887 48.201 68.3132 48.2448 67.8146C48.3289 66.8668 49.4289 66.2928 50.3973 65.9025C51.3657 65.5122 52.473 64.9842 52.6265 64.0396C52.6336 63.8559 52.6731 63.6743 52.7434 63.5017C52.8506 63.3476 53.0004 63.2211 53.1783 63.1344C56.0032 61.4584 58.8792 59.7595 62.1097 58.8444C62.2779 58.7952 62.2961 58.8477 62.4679 58.8116C62.7091 58.687 62.5483 58.3426 62.318 58.2048C62.0878 58.0671 61.7809 57.9589 61.7224 57.7161C61.6822 57.539 61.7991 57.3619 61.8284 57.1815C61.836 57.0726 61.8138 56.9636 61.7636 56.8642C61.7134 56.7647 61.6367 56.6778 61.5404 56.6112C61.4441 56.5445 61.331 56.5 61.2111 56.4817C61.0912 56.4633 60.9681 56.4716 60.8526 56.5059C60.5932 56.1976 61.1048 55.8401 61.5214 55.7352C62.7688 55.4285 64.0489 55.2416 65.3403 55.1776C65.4893 55.1555 65.6423 55.1786 65.7751 55.2432C65.8701 55.3254 65.9264 55.4371 65.9325 55.5555C65.9387 55.6738 65.8941 55.7897 65.808 55.8795C65.6322 56.0547 65.4376 56.214 65.227 56.355C65.0173 56.5378 64.8676 56.7687 64.7941 57.0226C64.7207 57.2765 64.7263 57.5436 64.8104 57.7949C65.4865 58.1032 66.2173 58.4213 66.9665 58.3131C67.712 58.2048 68.3735 57.4505 68.0226 56.8503C67.6974 56.2894 66.7143 56.1615 66.5462 55.5482C66.3489 54.8299 67.4818 54.1904 67.2259 53.4885C67.1163 53.1802 66.7728 52.9965 66.5097 52.7768C66.2 52.5031 65.9894 52.1521 65.9053 51.7695C65.8213 51.3869 65.8676 50.9904 66.0383 50.6318C65.6104 50.6989 65.1709 50.6731 64.7564 50.5567C64.3419 50.4403 63.9645 50.2367 63.6556 49.9627C63.0855 49.4478 62.6323 48.6311 61.821 48.6573C61.0792 48.677 60.4397 49.4543 59.7453 49.2182C59.5736 49.1591 59.3945 49.0411 59.23 49.1099C59.1758 49.1412 59.1302 49.1832 59.0966 49.2326C59.0631 49.282 59.0425 49.3377 59.0364 49.3953C58.861 50.1529 59.1643 51.0155 58.7038 51.6715C58.2032 52.3832 57.0447 52.4816 56.4381 53.1244C56.1092 53.4721 55.9813 53.9411 55.6779 54.3084C55.3746 54.6758 54.7351 54.9119 54.3697 54.5905C54.5486 54.2612 54.5976 53.8872 54.5087 53.5296C54.4197 53.1721 54.198 52.8523 53.88 52.6226C53.5434 52.4243 53.1798 52.2656 52.7982 52.1503C52.372 51.9889 51.9664 51.7865 51.5886 51.5468C51.4003 51.4439 51.2473 51.2964 51.1464 51.1205C51.0666 50.8993 51.077 50.6598 51.1757 50.4448C51.3607 49.9711 51.6861 49.5517 52.1169 49.2315C52.5476 48.9114 53.0675 48.7027 53.6205 48.6278C54.1029 48.5688 54.6657 48.5885 54.9872 48.2572C55.1554 48.0834 55.2431 47.8177 55.4916 47.7489C55.6481 47.7195 55.8111 47.7368 55.9557 47.7981C56.5587 47.9883 57.158 48.1785 57.761 48.3687C57.962 48.4515 58.1841 48.4843 58.4042 48.4638C58.5132 48.4512 58.6128 48.4018 58.6827 48.3257C58.7526 48.2495 58.7876 48.1523 58.7806 48.0539C58.7221 47.7849 58.2616 47.657 58.3055 47.3848C58.3268 47.2959 58.3793 47.2154 58.4553 47.1552C59.1071 46.533 59.904 46.0478 60.7891 45.7342C61.6742 45.4207 62.6256 45.2866 63.5752 45.3415C63.8018 45.6793 63.4436 46.0761 63.1403 46.3615C62.8406 46.6501 62.5995 47.1618 62.9649 47.3815C63.1123 47.4509 63.2773 47.4848 63.4436 47.4799C63.888 47.5334 64.3199 47.6508 64.7227 47.8276C65.3476 48.0703 65.9615 48.3392 66.5609 48.6278C66.4726 48.2762 66.4877 47.91 66.6047 47.5652C66.6707 47.3959 66.8046 47.2548 66.9803 47.1693C67.1559 47.0838 67.3608 47.0601 67.5549 47.1027C67.913 47.2274 68.0957 47.6537 68.4794 47.6931C68.9874 47.7456 69.1884 47.0699 68.9764 46.6501C68.7645 46.2303 68.3406 45.8826 68.3077 45.4202C68.2821 45.1119 68.4137 44.7282 68.1396 44.5412C68.0421 44.4833 67.9306 44.4473 67.8143 44.4362C65.5193 44.0591 63.2231 43.6808 60.9257 43.3014C60.5164 43.2326 59.9281 43.285 59.9098 43.6557C59.8988 43.8656 60.1071 44.0722 60.0158 44.2624C59.9171 44.4658 59.5955 44.4494 59.3616 44.5215C59.1859 44.5931 59.0409 44.714 58.9486 44.8661C58.8563 45.0182 58.8217 45.1931 58.85 45.3644C58.9125 45.7055 59.0599 46.0295 59.2812 46.3123C58.8317 46.145 58.1557 46.1155 57.7062 45.945C57.6408 45.4778 57.5081 45.0203 57.3115 44.5838C57.3002 44.5144 57.2722 44.448 57.2293 44.3893C57.1863 44.3306 57.1296 44.2811 57.0631 44.2442C56.9965 44.2073 56.9218 44.1839 56.8441 44.1757C56.7665 44.1676 56.6877 44.1748 56.6135 44.1968C56.0215 44.2788 55.4294 44.3575 54.8374 44.4395C54.6888 44.4459 54.5464 44.4954 54.4318 44.5806C54.2016 44.8003 54.4281 45.1512 54.4208 45.453C54.3994 45.6217 54.32 45.7803 54.1936 45.9066C54.0672 46.033 53.9001 46.1209 53.7155 46.1581C53.3436 46.2259 52.9598 46.2214 52.5899 46.145C51.7604 46.0302 50.9345 45.9154 50.1049 45.8006C50.8372 45.5912 51.4884 45.2001 51.9833 44.6724C52.3122 44.3247 52.4876 43.6753 52.0125 43.5113C51.8722 43.4768 51.7258 43.4667 51.5813 43.4818C50.4557 43.4884 49.5677 42.6455 48.5153 42.288C48.1843 42.1772 47.8342 42.1195 47.481 42.1174L46.3043 43.4129Z" fill="#E5E5E5"/>
<path d="M142.191 75.6667C142.062 75.822 141.893 75.9466 141.698 76.0295C141.503 76.1124 141.288 76.1511 141.073 76.1423C139.929 76.0538 139.446 74.5746 138.314 74.4073C138.213 74.3843 138.107 74.3935 138.014 74.4335C137.846 74.5155 137.817 74.7189 137.806 74.8894C137.758 75.7356 137.718 76.6146 138.087 77.3952C138.624 78.5366 140.017 79.4943 139.724 80.7045C138.153 80.0518 137.334 78.4677 136.965 76.9492C136.592 75.4306 136.534 73.8366 135.869 72.4C135.361 72.9806 134.301 72.5017 133.841 71.8917C133.402 71.3144 133.132 70.6454 132.708 70.0583C132.284 69.4745 131.633 68.9497 130.859 68.9169C130.044 68.8841 129.335 69.3859 128.713 69.8615C128.173 70.2198 127.719 70.6728 127.38 71.1931C126.945 71.9802 127.058 72.9051 127.036 73.7809C127.014 74.7254 126.791 75.7258 126.071 76.4211C125.351 77.1132 124.025 77.3559 123.232 76.7294C122.848 76.3707 122.575 75.9288 122.439 75.447C121.577 73.1921 120.859 70.8946 120.29 68.566C120.158 69.0973 119.636 69.7828 119.139 69.4712C119.028 69.3864 118.938 69.2813 118.876 69.1629C117.947 67.7559 116.234 66.9097 114.498 66.4013C112.765 65.8962 110.942 65.66 109.228 65.1025C108.267 64.7892 107.349 64.3788 106.491 63.8791C106.273 64.1671 106.146 64.5026 106.123 64.8501C106.099 65.1976 106.181 65.5443 106.359 65.8536C106.552 66.1562 106.851 66.3932 107.209 66.5279C107.567 66.6625 107.965 66.6872 108.34 66.5981C108.72 66.4866 109.042 66.2504 109.418 66.1323C109.794 66.0176 110.302 66.0733 110.467 66.4013C110.628 66.7129 110.386 67.0901 110.507 67.418C110.686 67.9133 111.523 67.9526 111.815 68.4053C111.901 68.5845 111.921 68.7837 111.872 68.9737C111.822 69.1638 111.707 69.3346 111.541 69.4614C111.205 69.7075 110.834 69.9126 110.438 70.0714C109.21 70.6847 108.336 71.731 107.262 72.5444C106.188 73.3611 104.671 73.9547 103.392 73.4332C103.695 72.0459 101.857 71.0291 101.517 69.6483C101.404 69.1924 101.462 68.7103 101.305 68.2675C101.075 67.6247 100.439 67.1852 99.9202 66.6997C99.2897 66.1038 98.7984 65.4008 98.4752 64.6319C98.152 63.8631 98.0034 63.044 98.0382 62.2228C98.0674 61.6521 98.1843 61.0716 98.0382 60.514C97.8956 59.9597 97.3804 59.4218 96.7445 59.4448C95.2937 59.5038 93.4628 59.6022 92.7027 58.4904C92.4286 58.0935 92.3117 57.513 92.7063 57.208C92.9841 56.9948 93.3934 57.0145 93.7552 57.0473C94.8478 57.1424 95.9368 57.2408 97.0295 57.3359C97.7933 57.4015 98.6192 57.4572 99.277 57.0997C99.9348 56.7423 100.22 55.7878 99.6095 55.3647C99.1674 55.0564 98.3707 55.0728 98.2391 54.5841C98.1332 54.1741 98.6375 53.7117 98.3634 53.3673C98.1697 53.1246 97.7312 53.1902 97.4644 53.3739C97.2316 53.5908 96.9785 53.7894 96.7079 53.9675C96.1854 54.2102 95.5641 53.9774 95.0013 53.8199C94.4385 53.6625 93.6857 53.6494 93.4153 54.1184C93.1083 54.6399 93.6821 55.3286 93.3824 55.8534C92.9804 56.5455 91.6283 56.1519 91.0655 56.7488C90.4223 57.431 91.504 58.4543 91.2884 59.3267C91.0108 59.4503 90.7022 59.5071 90.3928 59.4916C90.0834 59.4761 89.7838 59.3887 89.5233 59.2382C89.2676 59.0821 89.0639 58.8666 88.9339 58.6148C88.8039 58.363 88.7525 58.0842 88.7851 57.8082C88.8363 57.4146 89.0665 57.0112 88.913 56.6406C88.7475 56.3543 88.4743 56.1301 88.1419 56.0076C87.0821 55.4795 86.0224 54.9536 84.9626 54.43C84.6665 54.9219 85.0393 55.5287 85.5071 55.8993C85.9712 56.2667 86.5559 56.5455 86.8629 57.0309C87.0572 57.3673 87.1012 57.7576 86.9857 58.1221C86.8702 58.4866 86.6041 58.7978 86.2416 58.9922C86.1957 59.0205 86.1435 59.0396 86.0887 59.0481C86.0338 59.0566 85.9775 59.0543 85.9237 59.0414C85.873 59.0147 85.8288 58.9792 85.7937 58.937C85.7585 58.8947 85.7332 58.8466 85.719 58.7954C85.1599 57.5064 84.3157 56.2371 82.9709 55.5648C81.6224 54.8891 79.6892 55.0302 78.8048 56.1617C78.5965 56.4307 78.454 56.739 78.2713 57.0243C77.3029 58.5363 75.2198 59.2513 73.2757 59.2054C73.0855 59.2163 72.896 59.1764 72.7312 59.0906C72.4169 58.8971 72.4315 58.4838 72.479 58.1427C72.5485 57.6606 72.6142 57.1817 72.6837 56.6996C72.6854 56.4052 72.8121 56.1225 73.0381 55.9092C73.3999 55.6533 73.9189 55.8141 74.3793 55.8075C74.7268 55.7936 75.0611 55.6838 75.3365 55.493C75.6118 55.3022 75.8149 55.0398 75.9178 54.7416C76.0105 54.4406 76.0097 54.1227 75.9157 53.8221C75.8216 53.5215 75.6379 53.2497 75.3843 53.0361C75.176 52.8589 74.8946 52.6359 75.0042 52.3965C75.0488 52.3305 75.1088 52.2741 75.1801 52.231C75.2514 52.188 75.3323 52.1594 75.4172 52.1472C76.2394 51.934 77.1128 51.8783 77.9205 51.6225C78.7318 51.3699 79.5174 50.8517 79.7111 50.1006C79.7696 49.871 79.7952 49.5923 80.0254 49.4775C80.1417 49.4356 80.2656 49.4134 80.3909 49.4119C80.8303 49.3553 81.2302 49.1534 81.5122 48.8457C81.7942 48.538 81.9377 48.1468 81.9148 47.749C82.3021 47.5063 82.8466 47.6867 83.223 47.9458C83.5958 48.2049 83.9283 48.546 84.3851 48.6575C85.2366 48.8674 86.0589 48.1885 86.9433 48.1852C87.316 48.1852 87.6997 48.3033 88.0469 48.1885C88.4014 48.0737 88.6133 47.7588 88.8838 47.526C89.1578 47.2898 89.6329 47.1488 89.8851 47.4013C89.812 46.9258 89.7425 46.4535 89.6695 45.9812C90.1 46.0785 90.5488 46.092 90.9856 46.0207C91.4224 45.9494 91.8372 45.795 92.202 45.5679C91.2811 45.2891 90.3638 45.0104 89.4429 44.7316C89.3462 44.7102 89.2569 44.6673 89.1834 44.6069C88.9824 44.4134 89.1834 44.1117 89.3442 43.8919C89.7352 43.3639 89.801 42.4947 89.1579 42.2323C88.7193 42.052 88.2187 42.2684 87.7984 42.4783C87.126 42.8129 86.4536 43.1507 85.7812 43.4852C85.719 43.8296 86.1868 44.0264 86.4755 44.256C86.6514 44.396 86.776 44.5806 86.8328 44.7854C86.8896 44.9903 86.8759 45.2057 86.7937 45.4034C86.7114 45.6011 86.5643 45.7719 86.3719 45.8932C86.1794 46.0144 85.9505 46.0806 85.7154 46.0828C85.8478 46.238 85.9399 46.4178 85.9848 46.6091C86.0297 46.8004 86.0263 46.9982 85.9749 47.1881C85.5254 47.2177 85.0722 47.2472 84.619 47.2767C84.5438 47.2902 84.4663 47.2901 84.391 47.2766C84.3158 47.2631 84.2442 47.2364 84.1805 47.198C84.0343 47.0832 84.0563 46.8798 84.0197 46.7093C83.9595 46.5054 83.8326 46.3224 83.6555 46.1839C83.4783 46.0454 83.259 45.9576 83.0257 45.932C82.5602 45.885 82.0888 45.9241 81.6407 46.0468C81.4459 46.1084 81.2326 46.1037 81.0414 46.0337C80.9329 45.9692 80.8508 45.8748 80.8075 45.7647C80.7279 45.5398 80.7144 45.3003 80.7682 45.0693C80.8219 44.8383 80.9412 44.6237 81.1145 44.4462C81.4654 44.0965 81.852 43.7769 82.2692 43.4918C83.2148 42.7488 83.9098 41.7831 84.2755 40.704C85.021 40.4219 85.7921 40.0414 86.5413 39.7594C87.1436 39.5089 87.7747 39.3186 88.4233 39.192C89.0338 39.1083 89.6523 39.0819 90.2688 39.1132C91.1093 39.1264 91.9535 39.1395 92.794 39.1559C93.5443 39.1276 94.294 39.2243 95.005 39.4412C95.6956 39.6971 96.3059 40.2513 96.3534 40.9204C96.3678 40.9967 96.3602 41.075 96.3315 41.1479C96.3027 41.2208 96.2536 41.2858 96.189 41.337C96.0919 41.3851 95.9818 41.4078 95.871 41.4026C95.1731 41.4222 94.877 41.5797 94.179 41.6026C94.6212 42.0257 95.1182 42.4718 95.7614 42.5472C96.8943 42.6784 97.7092 41.6256 98.2318 40.7105C98.2505 40.9434 98.3699 41.1606 98.5644 41.3156C98.759 41.4706 99.0134 41.5513 99.2733 41.5403C99.5533 41.4971 99.8206 41.4034 100.059 41.2648C102.307 40.1623 104.825 39.5785 107.386 39.5659C107.361 39.3918 107.409 39.2156 107.52 39.0714C107.632 38.9271 107.799 38.8252 107.989 38.7853C108.512 38.6934 108.979 39.0969 109.232 39.5167C109.48 39.9365 109.637 40.4219 110.039 40.7368C110.438 41.0516 111.209 41.0352 111.366 40.5826C111.519 40.1464 111.011 39.7725 110.591 39.5134C110.167 39.2576 109.725 38.782 110.01 38.4015C112.159 37.9719 114.326 37.5455 116.53 37.4602C116.904 37.4704 117.277 37.4124 117.626 37.2897C117.799 37.224 117.942 37.109 118.035 36.9625C118.127 36.8161 118.163 36.6463 118.137 36.4795C117.657 36.5803 117.153 36.5505 116.691 36.394C116.229 36.2375 115.83 35.9613 115.543 35.6006C117.805 35.4333 120.173 35.2857 122.347 35.7416L124.251 37.1913C123.89 37.5291 123.407 37.8472 123.67 38.185C123.757 38.2626 123.862 38.3215 123.978 38.3573C124.094 38.3931 124.217 38.4049 124.339 38.3917C124.8 38.3982 125.26 38.4081 125.717 38.4081C135.169 46.5228 140.987 57.4607 142.074 69.1596C141.307 69.1334 140.601 70.0058 140.7 70.7668C140.817 71.649 141.526 72.3575 142.034 73.1184C142.118 73.2421 142.194 73.3702 142.26 73.5021L142.191 75.6667Z" fill="#E5E5E5"/>
<path d="M60.25 95.0484C59.8084 94.7639 59.3053 94.5732 58.7761 94.4897C58.2469 94.4061 57.7045 94.4318 57.1871 94.5649C56.6698 94.6979 56.19 94.9352 55.7815 95.2598C55.3731 95.5845 55.046 95.9888 54.8232 96.4441L41.8345 95.3022L45.019 100.883L56.8651 101.112C57.7103 101.41 58.6434 101.409 59.4876 101.108C60.3319 100.808 61.0286 100.229 61.4458 99.4819C61.8631 98.7345 61.9718 97.8704 61.7514 97.0533C61.531 96.2361 60.9968 95.5228 60.25 95.0484Z" fill="#FFB8B8"/>
<path d="M53.7907 101.255C53.6364 101.415 53.4477 101.543 53.2368 101.63C53.026 101.718 52.7978 101.763 52.567 101.763L35.6123 101.402C31.5084 101.399 27.5452 100.006 24.4602 97.4824L14.2941 89.1688C13.6837 88.8575 13.1451 88.437 12.7092 87.9313C12.2732 87.4257 11.9485 86.8449 11.7535 86.2221C11.5586 85.5994 11.4972 84.9469 11.573 84.302C11.6487 83.6571 11.8601 83.0324 12.195 82.4638C12.5299 81.8951 12.9818 81.3936 13.5247 80.988C14.0677 80.5823 14.6911 80.2805 15.3594 80.0997C16.0276 79.919 16.7274 79.8628 17.4189 79.9345C18.1104 80.0062 18.78 80.2044 19.3893 80.5176L36.2263 92.9061L52.62 95.8519C52.9479 95.927 53.2431 96.0941 53.4658 96.3308C53.6885 96.5674 53.8279 96.8621 53.8652 97.175L54.2018 100.066C54.2377 100.376 54.1715 100.689 54.0119 100.963C53.9507 101.068 53.8765 101.166 53.7907 101.255Z" fill="#2F2E41"/>
<path d="M122.494 98.5172C122.129 98.9242 121.675 99.2543 121.163 99.4858C120.65 99.7172 120.091 99.8449 119.522 99.8602C118.953 99.8756 118.387 99.7783 117.861 99.5748C117.336 99.3713 116.862 99.0663 116.472 98.6797C112.935 95.2214 118.716 90.0286 122.266 93.4943C122.391 93.6138 122.507 93.7412 122.614 93.8756L140.513 93.4607L142.65 89.8171L149.216 92.1945C147.955 94.0173 146.508 101.171 143.211 100.823C142.779 100.834 122.936 98.5466 122.494 98.5172Z" fill="#A0616A"/>
<defs>
<filter id="filter0_d" x="4.81836" y="-5" width="167.44" height="156.431" filterUnits="userSpaceOnUse" color-interpolation-filters="sRGB">
<feFlood flood-opacity="0" result="BackgroundImageFix"/>
<feColorMatrix in="SourceAlpha" type="matrix" values="0 0 0 0 0 0 0 0 0 0 0 0 0 0 0 0 0 0 127 0"/>
<feOffset/>
<feGaussianBlur stdDeviation="15"/>
<feColorMatrix type="matrix" values="0 0 0 0 0.476863 0 0 0 0 0.282353 0 0 0 0 0.890196 0 0 0 0.5 0"/>
<feBlend mode="normal" in2="BackgroundImageFix" result="effect1_dropShadow"/>
<feBlend mode="normal" in="SourceGraphic" in2="effect1_dropShadow" result="shape"/>
</filter>
</defs>
</svg>
