<svg width="600" height="248" viewBox="0 0 600 248" fill="none" xmlns="http://www.w3.org/2000/svg">
<g clip-path="url(#clip0)">
<rect y="0.862068" width="600" height="246.207" rx="10" fill="url(#paint0_linear)"/>
<path d="M233.708 79.8942V79.8988L229.951 83.1154L204.113 88.9946C203.317 89.324 202.593 89.8106 201.982 90.4266C201.37 91.0426 200.883 91.7759 200.548 92.5848C199.872 94.2183 199.857 96.0601 200.506 97.7051C200.828 98.5196 201.303 99.2612 201.904 99.8877C202.506 100.514 203.222 101.013 204.011 101.356C205.606 102.049 207.404 102.064 209.01 101.399L225.468 98.5611C226.38 98.4061 227.28 98.1871 228.162 97.9058C228.509 97.7997 228.852 97.6797 229.189 97.5551C230.652 91.0265 232.706 84.652 235.326 78.5144L233.708 79.8942Z" fill="#2F2E41"/>
<path d="M225.565 225.95L231.089 225.949L233.717 204.127L225.564 204.127L225.565 225.95Z" fill="#FFB8B8"/>
<path d="M241.741 232.125L224.382 232.126L224.382 225.256L235.034 225.256C236.813 225.256 238.519 225.979 239.777 227.268C241.034 228.556 241.741 230.303 241.741 232.125Z" fill="#2F2E41"/>
<path d="M198.083 225.95L203.607 225.949L206.234 204.127L198.082 204.127L198.083 225.95Z" fill="#FFB8B8"/>
<path d="M214.259 232.125L196.899 232.126L196.899 225.256L207.551 225.256C209.33 225.256 211.036 225.979 212.294 227.268C213.552 228.556 214.259 230.303 214.259 232.125Z" fill="#2F2E41"/>
<path d="M227.075 137.008L231.931 176.412C232.598 181.829 233.065 187.266 233.332 192.723L234.64 219.52C234.652 219.77 234.615 220.02 234.53 220.255C234.445 220.489 234.314 220.704 234.146 220.885C233.977 221.066 233.775 221.21 233.55 221.309C233.326 221.408 233.084 221.459 232.84 221.459H225.471C225.04 221.459 224.623 221.3 224.296 221.012C223.969 220.725 223.754 220.326 223.689 219.89L217.062 175.166C217.03 174.95 216.924 174.753 216.764 174.61C216.604 174.466 216.399 174.385 216.186 174.382C215.973 174.378 215.766 174.452 215.601 174.589C215.436 174.727 215.324 174.921 215.285 175.135L207.301 218.937C207.222 219.331 207.02 219.688 206.725 219.953C206.43 220.218 206.059 220.377 205.667 220.407L198.885 220.848C198.633 220.866 198.38 220.831 198.143 220.743C197.905 220.656 197.688 220.518 197.506 220.339C197.324 220.16 197.18 219.944 197.085 219.704C196.989 219.465 196.944 219.207 196.952 218.949L199.142 147.16L227.075 137.008Z" fill="#2F2E41"/>
<path d="M205.564 80.8822C211.675 80.8822 216.629 75.8076 216.629 69.5478C216.629 63.288 211.675 58.2133 205.564 58.2133C199.452 58.2133 194.498 63.288 194.498 69.5478C194.498 75.8076 199.452 80.8822 205.564 80.8822Z" fill="#FFB8B8"/>
<path d="M196.89 148.083C199.593 154.544 211.307 159.159 214.01 149.929C216.101 142.795 224.382 139.795 228.035 138.803C228.495 138.677 228.888 138.372 229.129 137.952C229.37 137.532 229.44 137.032 229.324 136.56L219.11 95.4651C218.515 93.0712 217.331 90.8739 215.669 89.0833C214.008 87.2927 211.926 85.969 209.622 85.2386C201.504 82.6636 192.943 87.966 191.569 96.5542C191.194 98.9623 190.955 101.391 190.853 103.827C190.006 121.959 195.11 143.828 196.89 148.083Z" fill="#3F3D56"/>
<path d="M197.166 78.8186C197.404 78.9633 197.672 79.0499 197.948 79.0717C198.225 79.0935 198.502 79.0498 198.759 78.9442C199.016 78.8385 199.246 78.6736 199.431 78.4623C199.616 78.251 199.751 77.999 199.826 77.7257L199.832 77.6999C200.033 76.8396 199.866 75.9413 199.808 75.0588C199.751 74.1762 199.835 73.2067 200.422 72.5578C201.516 71.3482 203.462 71.9895 205.043 71.6836C205.97 71.4718 206.789 70.9214 207.348 70.1354C207.907 69.3495 208.167 68.3818 208.08 67.4136C208.058 67.2301 208.022 67.0465 207.983 66.863C207.884 66.3979 207.891 65.9158 208.005 65.4543C208.119 64.9928 208.335 64.5646 208.637 64.2032C208.94 63.8419 209.32 63.5572 209.748 63.3716C210.176 63.1861 210.64 63.1046 211.103 63.1336C212.702 63.2272 214.427 63.7233 215.75 62.5105C216.235 62.0322 216.571 61.4182 216.718 60.7451C216.864 60.072 216.814 59.3697 216.573 58.7258C215.818 56.493 213.683 55.3241 211.571 54.6815C208.959 53.9084 206.211 53.7413 203.528 54.1922C200.845 54.6432 198.293 55.701 196.059 57.2887C194.725 58.2519 193.479 59.4622 192.91 61.0293C192.342 62.5965 192.616 64.5736 193.898 65.6082C192.904 66.686 192.205 68.0125 191.869 69.4547C191.533 70.8969 191.573 72.4042 191.985 73.8255C192.619 75.9158 195.641 77.9198 197.166 78.8186Z" fill="#2F2E41"/>
<path d="M369.885 96.3158L366.303 96.2927L364.389 96.2835L353.418 76.6383C353.51 76.4327 353.59 76.2216 353.657 76.006C354.878 72.1481 351.657 69.4945 348.588 69.5499C348.239 69.5495 347.892 69.5914 347.552 69.6745C353.596 80.8768 357.649 93.0896 359.523 105.744C359.834 105.834 360.152 105.899 360.474 105.938C362.147 106.092 363.833 106.033 365.492 105.762C367.727 105.472 369.84 105.061 370.967 105.149L369.885 96.3158Z" fill="#A0616A"/>
<path d="M357.206 226.04H351.683L349.055 204.217L357.208 204.218L357.206 226.04Z" fill="#A0616A"/>
<path d="M347.737 225.346H358.39V232.216H341.03C341.03 231.314 341.204 230.421 341.541 229.587C341.878 228.754 342.372 227.996 342.995 227.358C343.618 226.72 344.357 226.214 345.171 225.869C345.984 225.524 346.857 225.346 347.737 225.346Z" fill="#2F2E41"/>
<path d="M396.402 226.04H390.879L388.251 204.217L396.404 204.218L396.402 226.04Z" fill="#A0616A"/>
<path d="M386.934 225.346H397.586V232.216H380.227C380.227 231.314 380.4 230.421 380.737 229.587C381.074 228.754 381.568 227.996 382.191 227.358C382.814 226.72 383.553 226.214 384.367 225.869C385.181 225.524 386.053 225.346 386.934 225.346Z" fill="#2F2E41"/>
<path d="M357.299 212.524C357.24 212.524 357.179 212.522 357.119 212.517L349.301 211.876C348.991 211.85 348.69 211.759 348.415 211.609C348.141 211.458 347.901 211.251 347.709 211C347.516 210.75 347.377 210.461 347.299 210.152C347.222 209.844 347.207 209.522 347.257 209.207L359.11 134.115L359.904 123.524C359.939 123.029 360.13 122.559 360.448 122.184C360.766 121.81 361.194 121.551 361.668 121.447L373.59 118.776C374.028 118.675 374.486 118.712 374.903 118.882C375.32 119.051 375.678 119.346 375.93 119.727L378.837 124.079C379.979 125.77 381.219 127.39 382.552 128.928C384.614 131.334 388.121 136.676 388.436 145.419C388.52 148.291 388.811 151.153 389.307 153.982L398.905 206.941C398.954 207.252 398.94 207.569 398.864 207.874C398.789 208.179 398.653 208.465 398.466 208.714C398.278 208.963 398.043 209.17 397.775 209.323C397.507 209.476 397.21 209.57 396.905 209.602L389.494 210.177C388.964 210.23 388.433 210.089 387.995 209.778C387.557 209.467 387.242 209.006 387.106 208.479L373.961 158.408C373.935 158.309 373.878 158.223 373.799 158.161C373.721 158.099 373.624 158.066 373.525 158.066C373.426 158.066 373.329 158.1 373.251 158.162C373.172 158.224 373.116 158.311 373.09 158.409L359.475 210.81C359.347 211.301 359.065 211.736 358.671 212.045C358.278 212.355 357.796 212.524 357.299 212.524Z" fill="#2F2E41"/>
<path d="M378.089 84.7445C384.2 84.7445 389.154 79.6699 389.154 73.4101C389.154 67.1502 384.2 62.0756 378.089 62.0756C371.977 62.0756 367.023 67.1502 367.023 73.4101C367.023 79.6699 371.977 84.7445 378.089 84.7445Z" fill="#A0616A"/>
<path d="M359.333 125.228L359.104 109.042C358.261 98.6895 362.737 93.254 366.64 90.5198C367.647 89.8238 368.781 89.3444 369.974 89.1105C371.167 88.8766 372.394 88.8932 373.58 89.1593L382.289 91.0877C383.501 91.3583 384.648 91.8781 385.659 92.6155C386.67 93.3529 387.524 94.2927 388.17 95.378C388.788 96.4019 389.194 97.5452 389.363 98.7367C389.531 99.9281 389.458 101.142 389.149 102.304C388.544 104.478 387.202 106.36 385.365 107.612C377.882 113.022 377.355 122.111 377.35 122.202L377.341 122.39L359.333 125.228Z" fill="#3F3D56"/>
<path d="M364.713 112.026L358.538 107.385C358.105 107.059 357.816 106.57 357.734 106.026C357.653 105.481 357.785 104.926 358.103 104.482L365.966 93.5067C366.421 92.8713 366.994 92.334 367.652 91.9254C368.31 91.5168 369.04 91.2449 369.8 91.1252C370.56 91.0056 371.336 91.0406 372.083 91.2281C372.83 91.4157 373.534 91.7522 374.154 92.2184C374.775 92.6846 375.299 93.2713 375.698 93.9452C376.097 94.619 376.362 95.3667 376.478 96.1456C376.595 96.9244 376.561 97.7192 376.377 98.4844C376.194 99.2497 375.865 99.9705 375.41 100.606L367.547 111.581C367.228 112.024 366.751 112.32 366.22 112.404C365.688 112.487 365.146 112.352 364.713 112.026Z" fill="#3F3D56"/>
<path d="M375.399 70.5773C373.834 71.0844 372.21 71.3709 370.57 71.4289C368.932 71.4099 367.229 70.8766 366.123 69.6388C364.551 67.8806 364.572 65.0163 365.788 62.9839C367.005 60.9516 369.188 59.6855 371.445 59.1058C373.703 58.5261 376.061 58.5534 378.388 58.5855C381.151 56.5219 385.18 56.8358 388.016 58.794C390.852 60.7522 392.584 64.0715 393.32 67.4925C394.056 70.9134 393.895 74.4651 393.616 77.9564C393.463 79.8696 393.62 82.3535 395.404 82.9401C396.53 83.3102 397.747 82.6311 398.554 81.7456C399.361 80.8601 399.925 79.7599 400.768 78.9108C402.566 77.1013 405.45 76.7345 407.825 77.599C410.2 78.4634 412.094 80.3887 413.43 82.5779C415.252 85.5645 416.142 89.0491 415.982 92.5671C415.821 96.0851 414.617 99.4695 412.531 102.269C410.445 105.068 407.575 107.15 404.305 108.236C401.034 109.323 397.518 109.362 394.225 108.349C388.132 106.475 383.531 101.208 380.571 95.4401C376.776 88.0066 375.206 79.5914 376.057 71.2482L375.399 70.5773Z" fill="#2F2E41"/>
<path d="M381.693 96.6896L368.528 94.816C368.046 94.7479 367.556 94.8595 367.148 95.1306C366.739 95.4017 366.439 95.8141 366.303 96.2927C366.275 96.3895 366.254 96.4882 366.24 96.588L365.186 104.355C365.114 104.899 365.256 105.451 365.579 105.89C365.902 106.329 366.38 106.619 366.911 106.699L380.076 108.573C381.614 108.792 383.175 108.377 384.414 107.418C385.654 106.459 386.47 105.035 386.685 103.459C386.899 101.884 386.494 100.285 385.558 99.0155C384.622 97.7459 383.231 96.9093 381.693 96.6896V96.6896Z" fill="#3F3D56"/>
<g filter="url(#filter0_d)">
<path d="M359.553 81.4618V81.8531C359.544 82.8357 359.515 83.8138 359.467 84.7875C358.608 101.451 351.316 117.16 339.087 128.694C326.858 140.229 310.618 146.715 293.694 146.824C276.77 146.933 260.445 140.657 248.064 129.281C235.683 117.906 228.184 102.293 227.103 85.6412C227.013 84.2584 226.968 82.8653 226.968 81.4618C226.944 67.925 231.205 54.7183 239.158 43.683C239.793 42.7938 240.455 41.9208 241.142 41.0642C241.615 40.4684 242.102 39.886 242.594 39.308C253.785 26.2374 269.726 18.0118 286.997 16.396C304.269 14.7801 321.495 19.9027 334.98 30.6647C335.778 31.3005 336.563 31.9585 337.329 32.6299C337.942 33.1679 338.545 33.7177 339.138 34.2794C350.802 45.2797 357.982 60.1073 359.323 75.9664C359.476 77.7804 359.553 79.6122 359.553 81.4618Z" fill="#48BFE3"/>
</g>
<path d="M241.142 41.064C241.174 41.0774 241.205 41.0954 241.232 41.1173C241.588 41.4063 241.142 41.9621 241.196 42.42C241.259 43.0069 242.053 43.1359 242.653 43.1936C243.252 43.2559 244.01 43.7316 243.726 44.2563C242.22 44.7676 240.695 44.2652 239.158 43.6827C231.205 54.7179 226.944 67.9246 226.968 81.4613C226.968 82.8663 227.013 84.2594 227.103 85.6406C227.229 85.7314 227.367 85.8047 227.514 85.8585C227.965 86.0275 228.488 85.9963 228.903 86.2364C229.232 86.4276 229.453 86.7655 229.782 86.9434C230.724 87.4502 232.032 86.4765 232.912 87.0812C233.139 87.2853 233.354 87.502 233.557 87.7303C234.368 88.4239 235.703 87.9571 236.641 88.4773C237.246 88.8107 237.557 89.4776 237.881 90.0823C238.689 91.594 239.996 93.079 241.724 93.199C242.268 93.1744 242.814 93.1922 243.356 93.2524C243.888 93.3724 244.412 93.8304 244.326 94.3595C244.177 95.2709 244.632 96.2668 244.511 97.1783C244.29 98.8456 241.895 99.5748 241.692 101.242C241.691 101.609 241.67 101.976 241.629 102.34C241.521 102.776 241.187 103.132 241.07 103.567C240.844 104.39 241.444 105.212 242.098 105.764C242.756 106.32 243.541 106.8 243.902 107.573C244.281 108.396 244.096 109.352 244.218 110.245C244.488 112.197 246.197 113.642 247.956 114.576C248.52 114.808 249.02 115.168 249.417 115.625C249.868 116.27 249.823 117.119 249.976 117.888C250.346 119.769 251.952 121.321 251.997 123.237C252.028 124.602 251.262 125.838 250.802 127.123C250.329 128.47 250.188 129.909 250.391 131.32C252.963 133.47 255.696 135.425 258.568 137.167C258.724 136.939 258.838 136.686 258.906 136.42C258.96 136.125 258.923 135.821 258.798 135.548C258.673 135.274 258.467 135.045 258.207 134.89C258.691 134.71 259.132 134.431 259.501 134.072C259.682 133.888 259.802 133.654 259.844 133.402C259.886 133.149 259.848 132.889 259.736 132.658C260.529 132.756 261.472 132.805 261.995 132.205C262.414 131.725 262.387 131.004 262.22 130.395C262.054 129.782 261.774 129.19 261.769 128.554C263.608 128.643 265.452 128.582 267.28 128.372C267.016 127.493 266.414 126.75 265.603 126.3C266.433 126.162 267.186 125.184 267.447 124.397C267.673 123.594 267.686 122.748 267.483 121.939C267.421 121.731 267.411 121.511 267.456 121.298C267.59 121.016 267.824 120.793 268.115 120.672C269.486 119.893 270.857 119.117 272.228 118.342C272.472 118.22 272.695 118.059 272.886 117.866C273.314 117.364 273.251 116.612 273.03 115.994C272.809 115.376 272.458 114.794 272.372 114.145C272.119 112.202 274.23 110.806 274.942 108.974C275.185 108.243 275.315 107.48 275.33 106.711C275.389 105.884 275.393 104.928 274.753 104.399C274.135 103.887 273.175 104.003 272.53 103.527C271.939 103.092 271.736 102.251 271.091 101.9C270.505 101.58 269.774 101.784 269.12 101.633C267.975 101.371 267.253 100.068 266.081 99.9482C265.422 99.8771 264.674 100.197 264.133 99.8193C263.655 99.4814 263.636 98.81 263.546 98.2409C263.386 97.3545 262.955 96.5376 262.31 95.9002C261.665 95.2627 260.837 94.8352 259.939 94.6751C259.258 94.5684 258.518 94.6085 257.936 94.2394C257.35 93.866 257.084 93.1679 256.619 92.6477C255.88 91.8163 254.707 91.5184 253.611 91.265C252.123 90.9226 250.636 90.5788 249.151 90.2335C248.362 90.0467 247.343 89.9489 246.914 90.6336C246.788 90.894 246.7 91.171 246.653 91.4562C246.492 91.9693 246.17 92.4192 245.735 92.7417C245.299 93.0643 244.771 93.243 244.227 93.2524C243.854 92.6246 243.25 92.1628 242.54 91.963C242.076 91.8863 241.618 91.7793 241.169 91.6429C240.934 91.5296 240.726 91.3702 240.556 91.1746C240.386 90.979 240.258 90.7512 240.18 90.5053C240.102 90.2593 240.076 90.0003 240.104 89.7441C240.131 89.4879 240.211 89.2399 240.339 89.0153C240.595 88.564 240.693 88.0425 240.619 87.5308C240.545 87.0192 240.302 86.5456 239.929 86.1831C239.171 85.5117 238.075 85.3472 237.056 85.4139C236.79 84.8403 237.237 84.1957 237.715 83.7777C238.197 83.3642 238.779 82.9552 238.883 82.3327C239.049 81.3546 237.782 80.6121 236.822 80.9011C235.861 81.1945 235.248 82.1149 234.842 83.0219C234.645 83.5571 234.377 84.064 234.044 84.5291C233.873 84.7592 233.641 84.9383 233.374 85.0466C233.106 85.1549 232.814 85.1882 232.528 85.1427C231.735 84.9426 231.433 84.0134 231.257 83.2309C230.975 82.185 230.832 81.1074 230.833 80.0252C230.84 78.9324 231.28 77.8856 232.059 77.1086C233.372 75.917 235.392 76.0326 237.164 76.2238C236.975 75.9742 236.884 75.6649 236.908 75.3538C236.933 75.0428 237.072 74.7514 237.3 74.5343C237.537 74.3266 237.822 74.1792 238.13 74.1048C238.438 74.0305 238.76 74.0314 239.067 74.1074C239.602 74.2165 240.083 74.5 240.434 74.9122C240.939 75.5169 241.083 76.3394 241.462 77.0241C241.845 77.7132 242.702 78.3001 243.401 77.9311C244.01 77.611 244.105 76.784 243.956 76.1215C243.803 75.4635 243.482 74.8188 243.537 74.143C243.64 72.8581 244.998 72.08 246.193 71.5509C247.388 71.0218 248.754 70.306 248.944 69.0256C248.953 68.7765 249.001 68.5304 249.088 68.2964C249.22 68.0875 249.405 67.9159 249.625 67.7984C253.111 65.5265 256.66 63.2234 260.647 61.9829C260.854 61.9162 260.876 61.9874 261.088 61.9385C261.386 61.7695 261.188 61.3027 260.904 61.1159C260.619 60.9292 260.241 60.7825 260.168 60.4535C260.119 60.2134 260.263 59.9733 260.299 59.7287C260.309 59.581 260.281 59.4333 260.219 59.2985C260.157 59.1637 260.063 59.0459 259.944 58.9555C259.825 58.8651 259.686 58.8048 259.538 58.78C259.39 58.7551 259.238 58.7664 259.095 58.8128C258.775 58.3949 259.406 57.9103 259.92 57.768C261.46 57.3523 263.04 57.0989 264.633 57.0122C264.817 56.9822 265.006 57.0135 265.17 57.1011C265.287 57.2126 265.356 57.364 265.364 57.5244C265.372 57.6848 265.317 57.8419 265.21 57.9636C264.993 58.2012 264.753 58.4172 264.493 58.6083C264.235 58.8561 264.05 59.1691 263.959 59.5133C263.869 59.8575 263.875 60.2196 263.979 60.5602C264.814 60.9781 265.715 61.4094 266.64 61.2627C267.56 61.1159 268.376 60.0933 267.943 59.2797C267.542 58.5194 266.329 58.346 266.121 57.5146C265.878 56.5409 267.276 55.6739 266.96 54.7224C266.825 54.3045 266.401 54.0555 266.076 53.7576C265.694 53.3867 265.434 52.9109 265.33 52.3922C265.227 51.8735 265.284 51.336 265.494 50.8499C264.966 50.9408 264.424 50.9059 263.913 50.7481C263.401 50.5904 262.935 50.3142 262.554 49.9428C261.851 49.2448 261.291 48.1377 260.29 48.1733C259.375 48.2 258.586 49.2537 257.729 48.9336C257.517 48.8535 257.296 48.6935 257.093 48.7869C257.026 48.8293 256.97 48.8862 256.928 48.9532C256.887 49.0202 256.861 49.0956 256.854 49.1737C256.637 50.2007 257.012 51.3701 256.443 52.2593C255.826 53.2241 254.396 53.3575 253.647 54.2289C253.242 54.7002 253.084 55.336 252.709 55.8339C252.335 56.3319 251.546 56.652 251.095 56.2163C251.316 55.7699 251.376 55.2629 251.266 54.7782C251.157 54.2935 250.883 53.86 250.491 53.5486C250.075 53.2799 249.627 53.0647 249.156 52.9084C248.63 52.6896 248.129 52.4153 247.663 52.0903C247.431 51.9508 247.242 51.7508 247.117 51.5123C247.019 51.2125 247.032 50.8879 247.153 50.5964C247.382 49.9543 247.783 49.3857 248.315 48.9517C248.846 48.5177 249.488 48.2348 250.17 48.1333C250.766 48.0533 251.46 48.0799 251.857 47.6309C252.064 47.3952 252.173 47.0351 252.479 46.9418C252.673 46.902 252.874 46.9254 253.052 47.0085C253.796 47.2663 254.536 47.5242 255.28 47.7821C255.528 47.8943 255.802 47.9388 256.074 47.911C256.208 47.8939 256.331 47.8269 256.417 47.7237C256.504 47.6205 256.547 47.4887 256.538 47.3552C256.466 46.9907 255.898 46.8173 255.952 46.4482C255.978 46.3277 256.043 46.2186 256.137 46.137C256.941 45.2935 257.925 44.6358 259.017 44.2107C260.109 43.7857 261.283 43.6039 262.455 43.6783C262.735 44.1363 262.293 44.6742 261.918 45.061C261.548 45.4523 261.251 46.1459 261.702 46.4438C261.884 46.5378 262.087 46.5838 262.293 46.5772C262.841 46.6497 263.374 46.8088 263.871 47.0485C264.642 47.3775 265.4 47.742 266.139 48.1333C266.031 47.6566 266.049 47.1602 266.193 46.6928C266.275 46.4633 266.44 46.272 266.657 46.1561C266.874 46.0402 267.127 46.008 267.366 46.0659C267.808 46.2348 268.033 46.8128 268.507 46.8662C269.134 46.9373 269.382 46.0214 269.12 45.4523C268.859 44.8832 268.336 44.4119 268.295 43.785C268.263 43.3671 268.426 42.8469 268.088 42.5935C267.967 42.5149 267.83 42.4661 267.686 42.4512C264.854 41.9399 262.02 41.4271 259.185 40.9128C258.68 40.8195 257.954 40.8906 257.932 41.393C257.918 41.6776 258.175 41.9577 258.062 42.2155C257.941 42.4912 257.544 42.469 257.255 42.5668C257.038 42.6638 256.859 42.8277 256.746 43.0339C256.632 43.2401 256.589 43.4772 256.624 43.7094C256.701 44.1717 256.883 44.611 257.156 44.9944C256.601 44.7676 255.767 44.7276 255.212 44.4964C255.132 43.8632 254.968 43.2429 254.725 42.6513C254.711 42.5571 254.677 42.4671 254.624 42.3875C254.571 42.308 254.501 42.2408 254.419 42.1908C254.337 42.1408 254.244 42.1091 254.149 42.098C254.053 42.0869 253.955 42.0967 253.864 42.1266C253.133 42.2378 252.403 42.3445 251.672 42.4556C251.489 42.4642 251.313 42.5313 251.172 42.6468C250.887 42.9447 251.167 43.4204 251.158 43.8295C251.132 44.0582 251.034 44.2731 250.878 44.4444C250.722 44.6157 250.515 44.7349 250.288 44.7854C249.829 44.8773 249.355 44.8712 248.899 44.7676C247.875 44.612 246.856 44.4564 245.832 44.3008C246.736 44.0169 247.539 43.4866 248.15 42.7713C248.556 42.3 248.772 41.4197 248.186 41.1974C248.013 41.1505 247.832 41.1369 247.654 41.1574C246.265 41.1663 245.169 40.0236 243.87 39.539C243.462 39.3888 243.03 39.3105 242.594 39.3078L241.142 41.064Z" fill="#E5E5E5"/>
<path d="M359.47 84.7875C359.311 84.998 359.102 85.1668 358.861 85.2792C358.62 85.3916 358.356 85.4441 358.09 85.4322C356.678 85.3121 356.083 83.3069 354.685 83.0802C354.561 83.049 354.43 83.0615 354.315 83.1157C354.108 83.2269 354.072 83.5026 354.058 83.7338C353.999 84.8809 353.95 86.0724 354.405 87.1306C355.068 88.6779 356.786 89.9761 356.426 91.6167C354.486 90.7319 353.476 88.5845 353.021 86.5259C352.561 84.4674 352.489 82.3066 351.668 80.3591C351.041 81.1461 349.733 80.497 349.165 79.67C348.624 78.8875 348.29 77.9805 347.767 77.1846C347.244 76.3932 346.441 75.6818 345.485 75.6374C344.479 75.5929 343.604 76.2732 342.838 76.9179C342.171 77.4035 341.611 78.0177 341.192 78.723C340.655 79.7901 340.795 81.0439 340.768 82.231C340.741 83.5115 340.466 84.8675 339.577 85.8101C338.689 86.7482 337.052 87.0773 336.073 86.228C335.6 85.7417 335.263 85.1428 335.095 84.4896C334.031 81.4328 333.145 78.3184 332.443 75.1617C332.281 75.8819 331.636 76.8112 331.022 76.3888C330.885 76.2738 330.774 76.1313 330.698 75.9709C329.552 74.0635 327.437 72.9164 325.295 72.2272C323.157 71.5425 320.907 71.2224 318.792 70.4665C317.606 70.0419 316.473 69.4855 315.414 68.8081C315.145 69.1986 314.988 69.6533 314.96 70.1244C314.931 70.5955 315.032 71.0654 315.252 71.4847C315.49 71.8949 315.858 72.2163 316.3 72.3988C316.742 72.5813 317.233 72.6148 317.696 72.494C318.165 72.3428 318.562 72.0227 319.026 71.8626C319.491 71.707 320.118 71.7826 320.321 72.2272C320.519 72.6496 320.222 73.1609 320.37 73.6055C320.591 74.2769 321.624 74.3302 321.985 74.9438C322.091 75.1868 322.115 75.4568 322.054 75.7144C321.994 75.972 321.851 76.2037 321.647 76.3754C321.232 76.7091 320.774 76.9871 320.285 77.2024C318.769 78.0339 317.692 79.4522 316.366 80.5548C315.04 81.6619 313.168 82.4666 311.59 81.7597C311.964 79.879 309.696 78.5007 309.276 76.6289C309.137 76.0109 309.209 75.3573 309.015 74.7571C308.731 73.8856 307.946 73.2898 307.306 72.6318C306.528 71.824 305.921 70.8709 305.523 69.8286C305.124 68.7864 304.94 67.676 304.983 66.5628C305.019 65.7892 305.164 65.0022 304.983 64.2464C304.807 63.495 304.171 62.7658 303.387 62.797C301.596 62.877 299.337 63.0104 298.399 61.5031C298.061 60.9652 297.916 60.1782 298.403 59.7647C298.746 59.4757 299.251 59.5024 299.698 59.5469C301.046 59.6758 302.39 59.8092 303.738 59.9381C304.681 60.027 305.7 60.1026 306.512 59.618C307.324 59.1334 307.675 57.8396 306.922 57.266C306.377 56.8481 305.394 56.8703 305.231 56.2078C305.1 55.6521 305.723 55.0251 305.385 54.5583C305.146 54.2293 304.604 54.3182 304.275 54.5672C303.988 54.8612 303.676 55.1305 303.342 55.3719C302.697 55.701 301.93 55.3853 301.236 55.1719C300.541 54.9585 299.612 54.9407 299.278 55.5765C298.9 56.2834 299.608 57.2171 299.238 57.9285C298.742 58.8666 297.073 58.3331 296.379 59.1423C295.585 60.0671 296.92 61.4542 296.654 62.6369C296.311 62.8044 295.93 62.8814 295.549 62.8604C295.167 62.8393 294.797 62.721 294.475 62.5169C294.16 62.3053 293.909 62.0132 293.748 61.6718C293.588 61.3304 293.524 60.9525 293.565 60.5784C293.628 60.0448 293.912 59.498 293.722 58.9955C293.518 58.6075 293.181 58.3035 292.771 58.1374C291.463 57.4216 290.155 56.7087 288.847 55.9988C288.482 56.6658 288.942 57.4883 289.519 57.9907C290.092 58.4887 290.814 58.8666 291.192 59.5246C291.432 59.9807 291.486 60.5098 291.344 61.0039C291.202 61.4981 290.873 61.92 290.426 62.1834C290.369 62.2218 290.305 62.2477 290.237 62.2592C290.169 62.2707 290.1 62.2676 290.033 62.2501C289.971 62.2139 289.916 62.1658 289.873 62.1085C289.83 62.0513 289.798 61.986 289.781 61.9166C289.091 60.1693 288.049 58.4487 286.39 57.5372C284.725 56.6213 282.34 56.8125 281.248 58.3464C280.991 58.711 280.816 59.1289 280.59 59.5157C279.395 61.5654 276.824 62.5347 274.425 62.4724C274.191 62.4872 273.957 62.4331 273.753 62.3168C273.365 62.0545 273.383 61.4943 273.442 61.0319C273.528 60.3783 273.609 59.7292 273.695 59.0756C273.697 58.6765 273.853 58.2933 274.132 58.0041C274.579 57.6573 275.219 57.8751 275.787 57.8662C276.216 57.8474 276.629 57.6985 276.968 57.4399C277.308 57.1812 277.559 56.8255 277.686 56.4212C277.8 56.0133 277.799 55.5823 277.683 55.1748C277.567 54.7674 277.34 54.3989 277.027 54.1093C276.77 53.8692 276.423 53.5668 276.558 53.2423C276.613 53.1529 276.687 53.0763 276.775 53.018C276.863 52.9596 276.963 52.9208 277.068 52.9044C278.083 52.6154 279.16 52.5398 280.157 52.193C281.158 51.8506 282.128 51.1481 282.367 50.13C282.439 49.8187 282.471 49.4408 282.755 49.2852C282.898 49.2285 283.051 49.1983 283.206 49.1963C283.748 49.1197 284.241 48.8459 284.589 48.4288C284.937 48.0117 285.115 47.4814 285.086 46.9421C285.564 46.6131 286.236 46.8576 286.701 47.2089C287.161 47.5601 287.571 48.0225 288.135 48.1737C289.186 48.4582 290.2 47.5379 291.292 47.5334C291.752 47.5334 292.225 47.6935 292.654 47.5379C293.091 47.3823 293.353 46.9554 293.686 46.6398C294.024 46.3196 294.611 46.1285 294.922 46.4708C294.832 45.8261 294.746 45.1859 294.656 44.5456C295.187 44.6775 295.741 44.6958 296.28 44.5992C296.819 44.5026 297.331 44.2933 297.781 43.9854C296.645 43.6075 295.513 43.2296 294.376 42.8517C294.257 42.8226 294.147 42.7645 294.056 42.6827C293.808 42.4204 294.056 42.0113 294.255 41.7134C294.737 40.9976 294.818 39.8194 294.025 39.4637C293.483 39.2192 292.866 39.5126 292.347 39.7972C291.517 40.2507 290.687 40.7086 289.858 41.1621C289.781 41.629 290.358 41.8957 290.714 42.207C290.931 42.3968 291.085 42.6471 291.155 42.9247C291.225 43.2023 291.209 43.4944 291.107 43.7624C291.005 44.0305 290.824 44.2619 290.586 44.4263C290.349 44.5907 290.067 44.6804 289.776 44.6835C289.94 44.8938 290.053 45.1376 290.109 45.3968C290.164 45.6561 290.16 45.9243 290.097 46.1818C289.542 46.2218 288.983 46.2618 288.423 46.3019C288.331 46.3201 288.235 46.3201 288.142 46.3018C288.049 46.2835 287.961 46.2472 287.882 46.1951C287.702 46.0395 287.729 45.7639 287.684 45.5327C287.61 45.2563 287.453 45.0083 287.234 44.8204C287.016 44.6326 286.745 44.5137 286.457 44.4789C285.883 44.4152 285.301 44.4682 284.748 44.6346C284.508 44.7181 284.244 44.7117 284.008 44.6168C283.875 44.5294 283.773 44.4014 283.72 44.2522C283.622 43.9473 283.605 43.6226 283.671 43.3095C283.738 42.9964 283.885 42.7055 284.099 42.4649C284.532 41.9907 285.009 41.5576 285.524 41.171C286.691 40.1638 287.548 38.8547 288 37.3918C288.92 37.0095 289.871 36.4937 290.796 36.1113C291.539 35.7718 292.318 35.5138 293.118 35.3422C293.871 35.2287 294.635 35.193 295.395 35.2354C296.433 35.2532 297.474 35.271 298.512 35.2932C299.438 35.2549 300.363 35.386 301.24 35.6801C302.092 36.0269 302.846 36.7783 302.904 37.6853C302.922 37.7886 302.913 37.8948 302.877 37.9936C302.842 38.0924 302.781 38.1806 302.701 38.2499C302.581 38.3152 302.446 38.346 302.309 38.3389C301.448 38.3655 301.082 38.5789 300.221 38.6101C300.767 39.1836 301.38 39.7883 302.174 39.8905C303.572 40.0684 304.577 38.6412 305.222 37.4007C305.245 37.7165 305.393 38.0108 305.633 38.221C305.873 38.4311 306.187 38.5405 306.507 38.5256C306.853 38.467 307.183 38.34 307.477 38.1521C310.251 36.6576 313.358 35.8661 316.519 35.849C316.488 35.6131 316.547 35.3742 316.684 35.1787C316.822 34.9832 317.028 34.8449 317.263 34.7908C317.908 34.6663 318.485 35.2132 318.796 35.7823C319.103 36.3514 319.297 37.0095 319.793 37.4363C320.285 37.8631 321.236 37.8409 321.43 37.2273C321.62 36.636 320.993 36.1291 320.474 35.7779C319.951 35.4311 319.405 34.7864 319.757 34.2706C322.409 33.6882 325.083 33.1102 327.802 32.9946C328.265 33.0084 328.725 32.9297 329.155 32.7634C329.368 32.6744 329.546 32.5185 329.66 32.3199C329.774 32.1214 329.819 31.8912 329.787 31.6652C329.193 31.8017 328.572 31.7613 328.002 31.5492C327.432 31.337 326.939 30.9627 326.585 30.4736C329.376 30.2469 332.299 30.0468 334.982 30.6648L337.331 32.63C336.885 33.0879 336.29 33.5192 336.614 33.9772C336.721 34.0823 336.851 34.1622 336.994 34.2107C337.137 34.2592 337.29 34.2752 337.44 34.2573C338.008 34.2662 338.576 34.2795 339.14 34.2795C350.804 45.2798 357.984 60.1073 359.325 75.9664C358.378 75.9309 357.508 77.1136 357.63 78.145C357.774 79.3411 358.649 80.3014 359.276 81.3329C359.38 81.5006 359.473 81.6743 359.555 81.8531L359.47 84.7875Z" fill="#E5E5E5"/>
<path d="M258.351 111.061C257.807 110.676 257.186 110.417 256.533 110.304C255.88 110.191 255.21 110.225 254.572 110.406C253.933 110.586 253.341 110.908 252.837 111.348C252.333 111.788 251.93 112.336 251.655 112.953L235.626 111.405L239.556 118.971L254.174 119.281C255.217 119.685 256.369 119.683 257.411 119.276C258.453 118.869 259.312 118.084 259.827 117.071C260.342 116.058 260.476 114.887 260.204 113.779C259.932 112.671 259.273 111.704 258.351 111.061Z" fill="#FFB8B8"/>
<path d="M250.38 119.475C250.19 119.692 249.957 119.865 249.697 119.984C249.437 120.103 249.155 120.164 248.87 120.164L227.948 119.674C222.883 119.67 217.992 117.782 214.185 114.361L201.64 103.091C200.887 102.669 200.222 102.099 199.684 101.413C199.146 100.728 198.745 99.9407 198.505 99.0965C198.264 98.2523 198.189 97.3677 198.282 96.4935C198.375 95.6193 198.636 94.7725 199.05 94.0016C199.463 93.2308 200.021 92.5509 200.691 92.001C201.361 91.4511 202.13 91.042 202.955 90.7969C203.779 90.5519 204.643 90.4758 205.496 90.573C206.349 90.6702 207.176 90.9387 207.928 91.3634L228.705 108.157L248.936 112.151C249.34 112.252 249.705 112.479 249.98 112.8C250.254 113.121 250.426 113.52 250.472 113.944L250.888 117.863C250.932 118.283 250.85 118.707 250.653 119.079C250.578 119.221 250.486 119.354 250.38 119.475Z" fill="#2F2E41"/>
<path d="M335.163 115.764C334.712 116.315 334.152 116.763 333.519 117.077C332.887 117.39 332.197 117.563 331.495 117.584C330.793 117.605 330.094 117.473 329.445 117.197C328.797 116.922 328.212 116.508 327.731 115.984C323.367 111.296 330.501 104.256 334.881 108.955C335.036 109.117 335.179 109.289 335.31 109.472L357.399 108.909L360.035 103.97L368.138 107.193C366.583 109.664 364.796 119.362 360.728 118.89C360.194 118.904 335.708 115.804 335.163 115.764Z" fill="#A0616A"/>
</g>
<defs>
<filter id="filter0_d" x="196.968" y="-13.8966" width="192.585" height="190.722" filterUnits="userSpaceOnUse" color-interpolation-filters="sRGB">
<feFlood flood-opacity="0" result="BackgroundImageFix"/>
<feColorMatrix in="SourceAlpha" type="matrix" values="0 0 0 0 0 0 0 0 0 0 0 0 0 0 0 0 0 0 127 0"/>
<feOffset/>
<feGaussianBlur stdDeviation="15"/>
<feColorMatrix type="matrix" values="0 0 0 0 0.476863 0 0 0 0 0.282353 0 0 0 0 0.890196 0 0 0 0.5 0"/>
<feBlend mode="normal" in2="BackgroundImageFix" result="effect1_dropShadow"/>
<feBlend mode="normal" in="SourceGraphic" in2="effect1_dropShadow" result="shape"/>
</filter>
<linearGradient id="paint0_linear" x1="600" y1="0.862068" x2="149.265" y2="411.078" gradientUnits="userSpaceOnUse">
<stop stop-color="#3AC1F0"/>
<stop offset="1" stop-color="#4E54C8"/>
<stop offset="1" stop-color="#4E54C8"/>
</linearGradient>
<clipPath id="clip0">
<rect y="0.862068" width="600" height="246.207" rx="10" fill="white"/>
</clipPath>
</defs>
</svg>
