<svg width="859" height="719" viewBox="0 0 859 719" fill="none" xmlns="http://www.w3.org/2000/svg">
<g clip-path="url(#clip0)">
<path d="M618.95 718.439C669.602 718.439 710.664 709.475 710.664 698.416C710.664 687.357 669.602 678.392 618.95 678.392C568.298 678.392 527.236 687.357 527.236 698.416C527.236 709.475 568.298 718.439 618.95 718.439Z" fill="#E6E6E6"/>
<path d="M185.322 0H61.7737L-0.00012207 110.382L61.7737 220.765H185.322L247.096 110.382L185.322 0Z" fill="#E6E6E6"/>
<path d="M68.7078 208.375H178.388L233.229 110.382L178.388 12.3899H68.7078L13.8675 110.382L68.7078 208.375Z" fill="white"/>
<path d="M67.3831 86.37C70.1776 86.37 72.443 84.0329 72.443 81.15C72.443 78.267 70.1776 75.9299 67.3831 75.9299C64.5886 75.9299 62.3232 78.267 62.3232 81.15C62.3232 84.0329 64.5886 86.37 67.3831 86.37Z" fill="#E2E2E2"/>
<path d="M67.3831 115.602C70.1776 115.602 72.443 113.265 72.443 110.382C72.443 107.499 70.1776 105.162 67.3831 105.162C64.5886 105.162 62.3232 107.499 62.3232 110.382C62.3232 113.265 64.5886 115.602 67.3831 115.602Z" fill="#E2E2E2"/>
<path d="M67.3831 144.835C70.1776 144.835 72.443 142.498 72.443 139.615C72.443 136.732 70.1776 134.395 67.3831 134.395C64.5886 134.395 62.3232 136.732 62.3232 139.615C62.3232 142.498 64.5886 144.835 67.3831 144.835Z" fill="#E2E2E2"/>
<path d="M184.773 76.9739H88.6347V85.326H184.773V76.9739Z" fill="#E2E2E2"/>
<path d="M184.773 106.206H88.6347V114.558H184.773V106.206Z" fill="#E2E2E2"/>
<path d="M184.773 135.438H88.6347V143.791H184.773V135.438Z" fill="#E2E2E2"/>
<path d="M797.156 0H673.607L611.833 110.382L673.607 220.765H797.156L858.93 110.382L797.156 0Z" fill="#E6E6E6"/>
<path d="M680.541 208.375H790.222L845.062 110.382L790.222 12.3899H680.541L625.701 110.382L680.541 208.375Z" fill="white"/>
<path d="M679.216 86.37C682.011 86.37 684.276 84.0329 684.276 81.15C684.276 78.267 682.011 75.9299 679.216 75.9299C676.422 75.9299 674.156 78.267 674.156 81.15C674.156 84.0329 676.422 86.37 679.216 86.37Z" fill="#E2E2E2"/>
<path d="M679.216 115.602C682.011 115.602 684.276 113.265 684.276 110.382C684.276 107.499 682.011 105.162 679.216 105.162C676.422 105.162 674.156 107.499 674.156 110.382C674.156 113.265 676.422 115.602 679.216 115.602Z" fill="#E2E2E2"/>
<path d="M679.216 144.835C682.011 144.835 684.276 142.498 684.276 139.615C684.276 136.732 682.011 134.395 679.216 134.395C676.422 134.395 674.156 136.732 674.156 139.615C674.156 142.498 676.422 144.835 679.216 144.835Z" fill="#E2E2E2"/>
<path d="M796.606 76.9739H700.468V85.326H796.606V76.9739Z" fill="#E2E2E2"/>
<path d="M796.606 106.206H700.468V114.558H796.606V106.206Z" fill="#E2E2E2"/>
<path d="M796.606 135.438H700.468V143.791H796.606V135.438Z" fill="#E2E2E2"/>
<path d="M488.275 1.07202H365.926L304.752 110.382L365.926 219.693H488.275L549.45 110.382L488.275 1.07202Z" fill="#E6E6E6"/>
<path d="M372.793 207.423H481.409L535.716 110.382L481.409 13.3416H372.793L318.485 110.382L372.793 207.423Z" fill="white"/>
<path d="M371.481 86.6031C374.249 86.6031 376.492 84.2887 376.492 81.4338C376.492 78.5788 374.249 76.2644 371.481 76.2644C368.714 76.2644 366.471 78.5788 366.471 81.4338C366.471 84.2887 368.714 86.6031 371.481 86.6031Z" fill="#F25F5C"/>
<path d="M371.481 115.552C374.249 115.552 376.492 113.237 376.492 110.382C376.492 107.527 374.249 105.213 371.481 105.213C368.714 105.213 366.471 107.527 366.471 110.382C366.471 113.237 368.714 115.552 371.481 115.552Z" fill="#F25F5C"/>
<path d="M371.481 144.5C374.249 144.5 376.492 142.186 376.492 139.331C376.492 136.476 374.249 134.161 371.481 134.161C368.714 134.161 366.471 136.476 366.471 139.331C366.471 142.186 368.714 144.5 371.481 144.5Z" fill="#F25F5C"/>
<path d="M487.731 77.2983H392.527V85.5693H487.731V77.2983Z" fill="#F25F5C"/>
<path d="M487.731 106.247H392.527V114.518H487.731V106.247Z" fill="#F25F5C"/>
<path d="M487.731 135.195H392.527V143.466H487.731V135.195Z" fill="#F25F5C"/>
<path d="M599.469 192.317C599.469 192.317 609.489 230.884 618.004 233.447C626.52 236.01 572.582 244.013 572.582 244.013L571.393 209.451L599.469 192.317Z" fill="#A0616A"/>
<path d="M555.419 432.889L565.393 454.94L576.793 443.179L569.668 425.538L555.419 432.889Z" fill="#A0616A"/>
<path d="M679.392 419.658L676.541 440.239L667.992 434.359V412.308L679.392 419.658Z" fill="#A0616A"/>
<path d="M556.844 641.64L552.569 676.922L575.368 678.392L572.519 641.64H556.844Z" fill="#A0616A"/>
<path d="M682.242 641.64L686.517 676.922L663.717 678.392L666.567 641.64H682.242Z" fill="#A0616A"/>
<path d="M566.818 421.128C566.818 421.128 556.844 449.06 558.269 460.82C559.694 472.581 546.869 532.854 551.144 538.735C555.419 544.615 555.419 551.965 552.569 556.376C549.719 560.786 548.294 554.905 549.719 562.256C551.144 569.606 548.294 606.358 549.719 612.239C551.144 618.119 545.444 619.589 548.294 625.469C551.144 631.35 555.419 648.991 555.419 648.991L573.943 647.52L576.793 631.35C576.793 631.35 585.343 629.88 583.918 621.059C582.493 612.239 591.043 553.435 591.043 553.435L615.268 471.111L649.467 546.085C649.467 546.085 650.892 599.008 655.167 604.888C659.442 610.768 650.892 626.939 655.167 632.82C659.442 638.7 663.717 648.991 663.717 648.991H685.092V637.23C685.092 637.23 697.917 629.879 685.092 607.828L682.242 481.401L673.692 421.128H566.818Z" fill="#2F2E41"/>
<path d="M578.218 672.512C578.218 672.512 568.243 668.101 563.968 671.042C559.693 673.982 556.844 669.572 556.844 669.572C556.844 669.572 551.144 666.631 549.719 671.042C548.623 674.14 547.189 677.099 545.444 679.862C545.444 679.862 536.894 696.033 542.594 700.443C548.294 704.854 552.569 707.794 552.569 710.734C552.569 713.674 579.643 715.144 579.643 710.734C579.643 706.324 578.218 672.512 578.218 672.512Z" fill="#2F2E41"/>
<path d="M660.867 672.512C660.867 672.512 670.842 668.102 675.117 671.042C679.392 673.982 682.242 669.572 682.242 669.572C682.242 669.572 687.942 666.631 689.367 671.042C690.462 674.14 691.897 677.099 693.642 679.862C693.642 679.862 702.191 696.033 696.491 700.443C690.792 704.854 686.517 707.794 686.517 710.734C686.517 713.674 659.442 715.144 659.442 710.734C659.442 706.324 660.867 672.512 660.867 672.512Z" fill="#2F2E41"/>
<path d="M651.605 241.043C651.605 241.043 611.705 224.872 590.331 230.753C568.956 236.633 533.331 263.094 534.756 268.975C536.181 274.855 549.719 343.214 549.719 343.214C549.719 343.214 549.719 384.376 556.844 397.607C563.968 410.837 565.393 421.128 565.393 421.128L563.968 435.829C563.968 435.829 601.018 438.769 620.968 429.949C640.917 421.128 673.692 427.008 673.692 427.008C673.692 427.008 656.592 353.504 648.042 341.744C639.492 329.983 651.605 241.043 651.605 241.043Z" fill="#575A89"/>
<path d="M546.869 265.3L534.044 269.71C534.044 269.71 522.644 287.351 522.644 299.111C522.644 310.872 521.219 384.376 526.919 394.667C532.619 404.957 538.319 425.538 546.869 427.008L556.843 440.239L573.943 428.478L568.243 415.248L546.869 265.3Z" fill="#575A89"/>
<path d="M632.367 243.249L646.542 239.141L652.317 241.778C652.317 241.778 673.692 263.83 680.817 285.881C687.942 307.932 689.367 393.197 689.367 393.197C689.367 393.197 690.792 397.607 689.367 399.077C687.942 400.547 686.517 402.017 686.517 404.957C686.517 407.897 683.667 413.778 683.667 413.778L682.242 425.538L667.992 424.068C667.992 424.068 640.917 341.744 640.917 322.633C640.917 303.522 632.367 243.249 632.367 243.249Z" fill="#575A89"/>
<path d="M628.392 233.541C628.392 233.541 628.805 226.342 624.53 224.872C620.255 223.402 614.555 216.052 603.155 218.992C591.755 221.932 561.831 226.342 560.406 229.283C558.981 232.223 554.706 233.693 556.131 236.633C557.556 239.573 560.406 236.633 557.556 239.573C554.706 242.513 553.281 241.043 554.706 242.513C556.131 243.983 556.131 251.334 556.131 251.334C556.131 251.334 577.506 266.035 583.206 264.564C588.905 263.094 622.924 232.227 622.924 232.227L628.392 233.541Z" fill="#575A89"/>
<path opacity="0.2" d="M556.054 329.735L554.609 379.811L566.01 415.092L556.054 329.735Z" fill="black"/>
<path opacity="0.2" d="M654.4 307.857L667.294 356.157L664.314 393.22L654.4 307.857Z" fill="black"/>
<path d="M584.283 220.765C600.987 220.765 614.529 206.794 614.529 189.561C614.529 172.328 600.987 158.357 584.283 158.357C567.578 158.357 554.036 172.328 554.036 189.561C554.036 206.794 567.578 220.765 584.283 220.765Z" fill="#A0616A"/>
<path d="M558.543 187.408C560.678 193.034 562.812 198.659 564.946 204.285C567.57 211.201 570.575 218.6 576.725 222.459C584.319 227.225 594.46 224.901 601.805 219.739C614.917 210.525 621.585 192.535 617.776 176.647C613.967 160.759 599.941 148.048 584.177 146.201L583.873 151.85L577.155 146.04C575.367 149.753 569.716 150.577 567.001 147.521C568.766 151.295 566.729 155.899 563.787 158.79C560.174 162.342 549.837 166.61 550.266 172.96C550.552 177.197 556.877 183.017 558.543 187.408Z" fill="#2F2E41"/>
</g>
<defs>
<clipPath id="clip0">
<rect width="858.93" height="718.439" fill="white" transform="translate(-0.00012207)"/>
</clipPath>
</defs>
</svg>
