<svg width="1049" height="663" viewBox="0 0 1049 663" fill="none" xmlns="http://www.w3.org/2000/svg">
<g clip-path="url(#clip0)">
<g opacity="0.5">
<path opacity="0.5" d="M1048.76 0H625.765V427.61H1048.76V0Z" fill="url(#paint0_linear)"/>
</g>
<path d="M1046.63 3.29004H627.887V424.32H1046.63V3.29004Z" fill="white"/>
<g opacity="0.5">
<path opacity="0.5" d="M1004.12 38.25H670.402V305.52H1004.12V38.25Z" fill="#F25F5C"/>
</g>
<g opacity="0.5">
<path opacity="0.5" d="M900.47 222.3C900.288 211.757 896.113 201.707 888.838 194.3C882.286 187.66 873.474 180.04 863.927 175.43H863.869C859.825 173.399 855.492 172.049 851.035 171.43V155.07C854.292 152.06 856.983 148.457 858.973 144.44V145.75C858.973 145.75 874.182 129.9 873.833 111.3C874.056 100.13 868.851 87.8401 851.393 77.3001C810.856 52.9001 795.328 88.3801 792.371 96.5901C792.181 96.9875 792.038 97.4072 791.945 97.8401L791.829 98.2201C791.779 98.6051 791.779 98.9952 791.829 99.3801V99.5001C791.816 99.7066 791.816 99.9137 791.829 100.12C791.829 102.86 794.087 105.38 797.916 107.44C794.906 112.076 792.964 117.36 792.238 122.889C791.513 128.417 792.022 134.044 793.729 139.339C795.435 144.633 798.293 149.454 802.083 153.434C805.873 157.414 810.495 160.447 815.596 162.3V172.8L814.811 171.27C814.811 171.27 809.393 174.62 802.404 179.76C790.695 188.37 774.565 202.01 772.142 213.28C768.264 231.28 772.142 307.46 772.142 307.46L902.089 309.46L900.47 222.3ZM859.167 144.31L859.216 144.26L859.167 144.31ZM792.168 100.69V100.75V100.69ZM792.41 101.28V101.36V101.28ZM792.72 101.86L792.779 101.96L792.72 101.86ZM793.098 102.43L793.176 102.54L793.098 102.43ZM793.544 102.99L793.651 103.11L793.544 102.99ZM794.058 103.54L794.184 103.67L794.058 103.54ZM798.459 106.54L798.594 106.61L798.459 106.54ZM794.64 104.05L794.795 104.19L794.64 104.05ZM795.279 104.58L795.464 104.72L795.279 104.58ZM795.987 105.09L796.2 105.24L795.987 105.09ZM796.753 105.59L797.005 105.74L796.753 105.59ZM797.577 106.07L797.858 106.23L797.577 106.07Z" fill="url(#paint1_linear)"/>
</g>
<path d="M850.657 155.57H816.159V207.77H850.657V155.57Z" fill="#FDA57D"/>
<path opacity="0.05" d="M817.302 163.87C820.908 165.19 822.459 166.24 826.501 166.24C834.998 166.241 843.194 162.992 849.503 157.12V156.75H817.302V163.87Z" fill="black"/>
<path d="M827.655 165.06C846.708 165.06 862.153 149.126 862.153 129.47C862.153 109.814 846.708 93.8799 827.655 93.8799C808.602 93.8799 793.157 109.814 793.157 129.47C793.157 149.126 808.602 165.06 827.655 165.06Z" fill="#FDA57D"/>
<path d="M823.855 113.43C840.884 113.43 854.689 108.017 854.689 101.34C854.689 94.6629 840.884 89.25 823.855 89.25C806.826 89.25 793.021 94.6629 793.021 101.34C793.021 108.017 806.826 113.43 823.855 113.43Z" fill="black"/>
<path d="M830.02 105.8L858.382 123.61V145.61C858.382 145.61 895.381 107.03 850.986 80.3199C806.591 53.6099 793.021 100.68 793.021 100.68C793.021 100.68 805.351 110.89 830.02 105.8Z" fill="black"/>
<path d="M859.691 135.4C861.597 135.4 863.142 132.745 863.142 129.47C863.142 126.195 861.597 123.54 859.691 123.54C857.785 123.54 856.24 126.195 856.24 129.47C856.24 132.745 857.785 135.4 859.691 135.4Z" fill="#FDA57D"/>
<g opacity="0.05">
<path opacity="0.05" d="M858.382 123.61L839.5 111.76C834.372 112.898 829.139 113.458 823.894 113.43C807.318 113.43 793.845 108.3 793.098 101.87V101.98C793.086 102.18 793.086 102.38 793.098 102.58C793.098 109.26 806.902 114.67 823.932 114.67C829.194 114.702 834.443 114.142 839.587 113L858.46 124.85L858.382 123.61Z" fill="black"/>
<path opacity="0.05" d="M858.382 145.65V146.92C858.382 146.92 873.164 131.5 872.825 113.4C872.476 130.94 858.382 145.65 858.382 145.65Z" fill="black"/>
</g>
<path d="M815.383 171.75C815.383 171.75 777.638 195.11 773.867 212.63C770.096 230.15 773.867 304.27 773.867 304.27L900.305 306.22L898.696 221.4C898.514 211.137 894.443 201.355 887.355 194.15C877.914 184.58 863.636 172.89 849.348 171.75L832.366 204.85L815.383 171.75Z" fill="#4D8AF0"/>
<path opacity="0.05" d="M797.955 211.4C797.955 211.4 788.087 264.83 796.724 281.4L797.955 211.4Z" fill="black"/>
<path opacity="0.05" d="M869.452 211.4C869.452 211.4 879.32 264.83 870.683 281.4L869.452 211.4Z" fill="black"/>
<path d="M815.218 171.95L851.054 171.43L827.558 233.02L815.218 171.95Z" fill="white"/>
<path d="M815.218 168.14V171.95H850.986L851.054 168.14H815.218Z" fill="white"/>
<path d="M834.954 168.14H830.02V173.23H834.954V168.14Z" fill="black"/>
<path d="M815.218 171.95L807.823 179.59L823.855 207.77L815.218 171.95Z" fill="#4D8AF0"/>
<path d="M849.746 174.5L855.92 180.86L837.416 206.3L849.746 174.5Z" fill="#4D8AF0"/>
<path opacity="0.1" d="M815.218 171.95L807.823 179.59L823.855 207.77L815.218 171.95Z" fill="white"/>
<path opacity="0.1" d="M849.746 174.5L855.92 180.86L837.416 206.3L849.746 174.5Z" fill="white"/>
<path d="M832.482 170.68L812.756 256.48L825.086 275.56L841.119 256.48L832.482 170.68Z" fill="black"/>
<path d="M988.659 343.06H693.985V357.06H988.659V343.06Z" fill="#E0E0E0"/>
<path d="M941.647 371.06H740.998V385.06H941.647V371.06Z" fill="#E0E0E0"/>
<g opacity="0.5">
<path opacity="0.5" d="M422.992 114.52H0.00012207V542.13H422.992V114.52Z" fill="url(#paint2_linear)"/>
</g>
<path d="M420.87 117.81H2.12292V538.84H420.87V117.81Z" fill="white"/>
<g opacity="0.5">
<path opacity="0.5" d="M378.355 152.77H44.6373V420.04H378.355V152.77Z" fill="#F25F5C"/>
</g>
<path opacity="0.05" d="M205.884 267.83C209.49 269.15 211.041 270.2 215.083 270.2C223.58 270.202 231.776 266.952 238.085 261.08V260.71H205.884V267.83Z" fill="black"/>
<path d="M239.228 259.53H204.73V311.73H239.228V259.53Z" fill="#A0616A"/>
<path d="M216.236 269.02C235.289 269.02 250.734 253.086 250.734 233.43C250.734 213.774 235.289 197.84 216.236 197.84C197.183 197.84 181.738 213.774 181.738 233.43C181.738 253.086 197.183 269.02 216.236 269.02Z" fill="#A0616A"/>
<path d="M286.182 367.13H265.856V419.38H286.182V367.13Z" fill="#A0616A"/>
<path d="M152.843 367.13V420.45H169.379L171.298 371.04L152.843 367.13Z" fill="#A0616A"/>
<path d="M218.592 216.12L246.954 227.57V249.57C246.954 249.57 280.938 222.985 236.514 196.245C196.598 172.245 185.617 201 191.557 206C191.44 206.129 197.496 213.783 191.557 203C191.497 203.165 192.404 207.009 192.41 207.186C192.417 207.362 198.263 214.255 191.557 203C191.628 203.16 192.284 207.066 192.41 207.186C197.344 211.976 196.608 220.66 218.592 216.12Z" fill="#4D4545"/>
<path d="M248.263 239.36C250.169 239.36 251.713 236.705 251.713 233.43C251.713 230.155 250.169 227.5 248.263 227.5C246.357 227.5 244.812 230.155 244.812 233.43C244.812 236.705 246.357 239.36 248.263 239.36Z" fill="#A0616A"/>
<path d="M264.479 352.2V367.13H291.349L289.711 350.07L264.479 352.2Z" fill="white"/>
<path d="M216.924 292.49L204.924 277.56C204.924 277.56 157.001 294.62 157.001 350.07L171.473 367.13L169.408 420.45H254.166C254.166 420.45 260.369 365 258.305 347.94L264.508 352.21H289.313C289.313 352.21 298.851 292.49 238.909 273.3L216.924 292.49Z" fill="#235067"/>
<path d="M156.972 350.07L150.778 367.13L171.076 376.73L171.444 367.13L156.972 350.07Z" fill="white"/>
<path opacity="0.05" d="M196.404 283.54L204.527 302.29L216.13 292.45L204.924 278.83L196.404 283.54Z" fill="black"/>
<path d="M196.404 282.27L204.527 301.01L216.13 291.18L204.924 277.56L196.404 282.27Z" fill="white"/>
<path opacity="0.05" d="M239.558 273.37L246.954 278.46L225.997 298.81L218.66 292.24L239.558 273.37Z" fill="black"/>
<path d="M239.558 272.1L246.954 277.18L225.997 297.54L218.66 290.97L239.558 272.1Z" fill="white"/>
<path opacity="0.05" d="M172.966 362.42C172.943 345.9 178.139 329.821 187.767 316.62L172.966 362.42Z" fill="black"/>
<path opacity="0.05" d="M255.591 349.7V342.06L262.987 347.15L258.053 345.88L255.591 349.7Z" fill="black"/>
<path opacity="0.05" d="M265.458 367.51L265.856 368.88H286.182L286.415 367.51H265.458Z" fill="black"/>
<path opacity="0.05" d="M152.843 368.11V369.57L170.969 377.6L170.504 376.41L152.843 368.11Z" fill="black"/>
<path d="M351.815 452.06H57.1416V466.06H351.815V452.06Z" fill="#E0E0E0"/>
<path d="M304.803 480.06H104.154V494.06H304.803V480.06Z" fill="#E0E0E0"/>
<g opacity="0.5">
<path opacity="0.5" d="M737.973 234.98H314.981V662.59H737.973V234.98Z" fill="url(#paint3_linear)"/>
</g>
<path d="M735.85 238.27H317.104V659.3H735.85V238.27Z" fill="white"/>
<g opacity="0.5">
<path opacity="0.5" d="M693.336 273.24H359.618V540.51H693.336V273.24Z" fill="#F25F5C"/>
</g>
<g opacity="0.5">
<path opacity="0.5" d="M555.886 440.08L556.856 439.33L558.242 438.27L622.954 388.68L600.708 296.89C600.708 296.89 600.708 296.78 600.708 296.59C600.892 293.79 601.929 272.12 590.578 276.03C579.489 279.84 583.599 295.85 584.394 298.57L584.52 298.97L598.672 376.16L553.696 403.22L547.453 402.5C554.567 392.433 558.344 380.267 558.222 367.81C558.222 339.01 539.214 315.66 515.756 315.66C492.299 315.66 473.29 339.01 473.29 367.81C473.29 389.38 483.953 407.9 499.162 415.81L483.061 424.12V424.21C478.447 423.21 460.941 423.51 468.037 489.79C469.778 505.847 466.076 522.031 457.558 535.59L453.119 541.96L563.961 542.66H564.3C564.3 542.66 548.607 516.71 555.886 440.08Z" fill="url(#paint4_linear)"/>
</g>
<path d="M485.019 424.67C485.019 424.67 462.143 414.48 468.812 484.51C470.623 503.18 466.224 521.931 456.337 537.68L454.932 539.91H476.198L492.212 522.41L485.019 424.67Z" fill="#3AD29F"/>
<path d="M599.254 299.52C599.254 299.52 599.254 299.42 599.254 299.23L583.26 301.17L583.376 301.57L597.247 377.23L549.673 405.86L551.611 442.67L620.986 389.5L599.254 299.52Z" fill="#3AD29F"/>
<path d="M516.008 420.16C538.996 420.16 557.631 397.273 557.631 369.04C557.631 340.807 538.996 317.92 516.008 317.92C493.021 317.92 474.386 340.807 474.386 369.04C474.386 397.273 493.021 420.16 516.008 420.16Z" fill="#FFFF00"/>
<path d="M536.82 386.42H507.091V431.41H536.82V386.42Z" fill="#FDA57D"/>
<path d="M516.008 424.3L508.079 412.03L484.292 424.3V444.6C484.292 444.6 475.656 460.3 482.693 478.38C480.754 504.96 475.5 539.8 475.5 539.8L563.621 540.47C563.621 540.47 547.763 514.24 555.692 436.54L553.754 403.82L535.918 401.82L516.008 424.3Z" fill="#3AD29F"/>
<path opacity="0.05" d="M553.667 403.81L555.654 405.85L557.631 438.1L555.324 439.87L553.667 403.81Z" fill="black"/>
<path opacity="0.05" d="M508.079 393.58C511.181 394.71 512.529 395.58 516.008 395.58C523.331 395.581 530.394 392.781 535.831 387.72V387.4H508.079V393.58Z" fill="black"/>
<path d="M516.997 394.6C533.416 394.6 546.726 380.869 546.726 363.93C546.726 346.991 533.416 333.26 516.997 333.26C500.578 333.26 487.268 346.991 487.268 363.93C487.268 380.869 500.578 394.6 516.997 394.6Z" fill="#FDA57D"/>
<path d="M546.736 369.04C548.379 369.04 549.712 366.752 549.712 363.93C549.712 361.108 548.379 358.82 546.736 358.82C545.092 358.82 543.76 361.108 543.76 363.93C543.76 366.752 545.092 369.04 546.736 369.04Z" fill="#FDA57D"/>
<path opacity="0.05" d="M491.039 354.33V355.77H542.074V357.21H490.341L491.039 354.33Z" fill="black"/>
<path d="M541.783 330.19H490.244V356.77H541.783V330.19Z" fill="#FFFF00"/>
<path d="M589.318 279.07C578.452 282.81 582.475 298.5 583.25 301.17L599.244 299.23C599.457 296.48 600.475 275.24 589.318 279.07Z" fill="#FDA57D"/>
<g opacity="0.05">
<path opacity="0.05" d="M477.255 539.8C477.255 539.8 482.47 504.96 484.447 478.38C477.459 460.38 486.086 444.6 486.086 444.6V424.3L508.273 412.85L507.74 412.03L483.963 424.3V444.6C483.963 444.6 475.336 460.35 482.325 478.38C480.386 504.96 475.132 539.8 475.132 539.8L563.253 540.47L477.255 539.8Z" fill="black"/>
<path opacity="0.05" d="M517.802 424.25L537.43 401.98L535.502 401.76L516.9 422.86L517.802 424.25Z" fill="black"/>
</g>
<path opacity="0.05" d="M500.616 416.99L515.844 453.17L543.76 403.76L536.044 402.74L516.91 422.47L508.409 412.61L500.616 416.99Z" fill="black"/>
<path d="M500.616 415.89L515.844 452.08L543.76 402.67L536.044 401.64L516.91 421.38L508.409 411.51L500.616 415.89Z" fill="white"/>
<path d="M674.599 569.06H379.925V583.06H674.599V569.06Z" fill="#E0E0E0"/>
<path d="M627.587 597.06H426.938V611.06H627.587V597.06Z" fill="#E0E0E0"/>
</g>
<defs>
<linearGradient id="paint0_linear" x1="837.261" y1="427.61" x2="837.261" y2="0" gradientUnits="userSpaceOnUse">
<stop stop-color="#808080" stop-opacity="0.25"/>
<stop offset="0.54" stop-color="#808080" stop-opacity="0.12"/>
<stop offset="1" stop-color="#808080" stop-opacity="0.1"/>
</linearGradient>
<linearGradient id="paint1_linear" x1="113195" y1="74143.1" x2="131081" y2="74143.1" gradientUnits="userSpaceOnUse">
<stop stop-color="#808080" stop-opacity="0.25"/>
<stop offset="0.54" stop-color="#808080" stop-opacity="0.12"/>
<stop offset="1" stop-color="#808080" stop-opacity="0.1"/>
</linearGradient>
<linearGradient id="paint2_linear" x1="92292.7" y1="231935" x2="92292.7" y2="49084.4" gradientUnits="userSpaceOnUse">
<stop stop-color="#808080" stop-opacity="0.25"/>
<stop offset="0.54" stop-color="#808080" stop-opacity="0.12"/>
<stop offset="1" stop-color="#808080" stop-opacity="0.1"/>
</linearGradient>
<linearGradient id="paint3_linear" x1="230059" y1="283565" x2="230059" y2="100715" gradientUnits="userSpaceOnUse">
<stop stop-color="#808080" stop-opacity="0.25"/>
<stop offset="0.54" stop-color="#808080" stop-opacity="0.12"/>
<stop offset="1" stop-color="#808080" stop-opacity="0.1"/>
</linearGradient>
<linearGradient id="paint4_linear" x1="89872.8" y1="141256" x2="119626" y2="141256" gradientUnits="userSpaceOnUse">
<stop stop-color="#808080" stop-opacity="0.25"/>
<stop offset="0.54" stop-color="#808080" stop-opacity="0.12"/>
<stop offset="1" stop-color="#808080" stop-opacity="0.1"/>
</linearGradient>
<clipPath id="clip0">
<rect width="1048.76" height="662.59" fill="white" transform="translate(0.00012207)"/>
</clipPath>
</defs>
</svg>
