<svg width="810" height="683" viewBox="0 0 810 683" fill="none" xmlns="http://www.w3.org/2000/svg">
<g clip-path="url(#clip0)">
<path d="M583.691 683C631.458 683 670.181 674.477 670.181 663.964C670.181 653.451 631.458 644.928 583.691 644.928C535.924 644.928 497.202 653.451 497.202 663.964C497.202 674.477 535.924 683 583.691 683Z" fill="#E6E6E6"/>
<path d="M174.765 0H58.2549L0 104.937L58.2549 209.875H174.765L233.02 104.937L174.765 0Z" fill="#E6E6E6"/>
<path d="M64.7939 198.096H168.226L219.943 104.937L168.226 11.7786H64.7939L13.0776 104.937L64.7939 198.096Z" fill="white"/>
<path d="M63.5447 82.1095C66.18 82.1095 68.3163 79.8876 68.3163 77.1469C68.3163 74.4061 66.18 72.1843 63.5447 72.1843C60.9094 72.1843 58.773 74.4061 58.773 77.1469C58.773 79.8876 60.9094 82.1095 63.5447 82.1095Z" fill="#E2E2E2"/>
<path d="M63.5447 109.9C66.18 109.9 68.3163 107.678 68.3163 104.937C68.3163 102.197 66.18 99.9749 63.5447 99.9749C60.9094 99.9749 58.773 102.197 58.773 104.937C58.773 107.678 60.9094 109.9 63.5447 109.9Z" fill="#E2E2E2"/>
<path d="M63.5447 137.69C66.18 137.69 68.3163 135.468 68.3163 132.728C68.3163 129.987 66.18 127.765 63.5447 127.765C60.9094 127.765 58.773 129.987 58.773 132.728C58.773 135.468 60.9094 137.69 63.5447 137.69Z" fill="#E2E2E2"/>
<path d="M174.247 73.177H83.5856V81.1171H174.247V73.177Z" fill="#E2E2E2"/>
<path d="M174.247 100.967H83.5856V108.907H174.247V100.967Z" fill="#E2E2E2"/>
<path d="M174.247 128.758H83.5856V136.698H174.247V128.758Z" fill="#E2E2E2"/>
<path d="M751.745 0H635.235L576.98 104.937L635.235 209.875H751.745L810 104.937L751.745 0Z" fill="#E6E6E6"/>
<path d="M641.774 198.096H745.206L796.922 104.937L745.206 11.7786H641.774L590.057 104.937L641.774 198.096Z" fill="white"/>
<path d="M640.524 82.1095C643.16 82.1095 645.296 79.8876 645.296 77.1469C645.296 74.4061 643.16 72.1843 640.524 72.1843C637.889 72.1843 635.753 74.4061 635.753 77.1469C635.753 79.8876 637.889 82.1095 640.524 82.1095Z" fill="#E2E2E2"/>
<path d="M640.524 109.9C643.16 109.9 645.296 107.678 645.296 104.937C645.296 102.197 643.16 99.9749 640.524 99.9749C637.889 99.9749 635.753 102.197 635.753 104.937C635.753 107.678 637.889 109.9 640.524 109.9Z" fill="#E2E2E2"/>
<path d="M640.524 137.69C643.16 137.69 645.296 135.468 645.296 132.728C645.296 129.987 643.16 127.765 640.524 127.765C637.889 127.765 635.753 129.987 635.753 132.728C635.753 135.468 637.889 137.69 640.524 137.69Z" fill="#E2E2E2"/>
<path d="M751.227 73.177H660.565V81.1171H751.227V73.177Z" fill="#E2E2E2"/>
<path d="M751.227 100.967H660.565V108.907H751.227V100.967Z" fill="#E2E2E2"/>
<path d="M751.227 128.758H660.565V136.698H751.227V128.758Z" fill="#E2E2E2"/>
<path d="M460.46 1.01904H345.081L287.392 104.937L345.081 208.856H460.46L518.15 104.937L460.46 1.01904Z" fill="#E6E6E6"/>
<path d="M351.557 197.191H453.985L505.199 104.937L453.985 12.6833H351.557L300.343 104.937L351.557 197.191Z" fill="white"/>
<path d="M350.32 82.3312C352.929 82.3312 355.045 80.1309 355.045 77.4168C355.045 74.7027 352.929 72.5024 350.32 72.5024C347.71 72.5024 345.594 74.7027 345.594 77.4168C345.594 80.1309 347.71 82.3312 350.32 82.3312Z" fill="#F25F5C"/>
<path d="M350.32 109.852C352.929 109.852 355.045 107.651 355.045 104.937C355.045 102.223 352.929 100.023 350.32 100.023C347.71 100.023 345.594 102.223 345.594 104.937C345.594 107.651 347.71 109.852 350.32 109.852Z" fill="#F25F5C"/>
<path d="M350.32 137.372C352.929 137.372 355.045 135.172 355.045 132.458C355.045 129.744 352.929 127.543 350.32 127.543C347.71 127.543 345.594 129.744 345.594 132.458C345.594 135.172 347.71 137.372 350.32 137.372Z" fill="#F25F5C"/>
<path d="M459.947 73.4854H370.166V81.3483H459.947V73.4854Z" fill="#F25F5C"/>
<path d="M459.947 101.006H370.166V108.869H459.947V101.006Z" fill="#F25F5C"/>
<path d="M459.947 128.526H370.166V136.389H459.947V128.526Z" fill="#F25F5C"/>
<path d="M565.319 182.831C565.319 182.831 574.769 219.495 582.799 221.931C590.83 224.368 539.965 231.976 539.965 231.976L538.843 199.12L565.319 182.831Z" fill="#A0616A"/>
<path d="M523.779 411.535L533.185 432.499L543.936 421.318L537.216 404.547L523.779 411.535Z" fill="#A0616A"/>
<path d="M640.69 398.957L638.002 418.523L629.939 412.933V391.969L640.69 398.957Z" fill="#A0616A"/>
<path d="M525.123 609.989L521.092 643.531L542.592 644.928L539.905 609.989H525.123Z" fill="#A0616A"/>
<path d="M643.378 609.989L647.409 643.531L625.908 644.928L628.596 609.989H643.378Z" fill="#A0616A"/>
<path d="M534.529 400.354C534.529 400.354 525.123 426.908 526.466 438.089C527.81 449.269 515.716 506.569 519.747 512.16C523.779 517.75 523.779 524.738 521.091 528.93C518.404 533.123 517.06 527.533 518.404 534.521C519.747 541.508 517.06 576.447 518.404 582.038C519.747 587.628 514.372 589.026 517.06 594.616C519.747 600.206 523.779 616.977 523.779 616.977L541.248 615.579L543.936 600.206C543.936 600.206 551.999 598.809 550.655 590.423C549.311 582.038 557.374 526.135 557.374 526.135L580.219 447.872L612.47 519.147C612.47 519.147 613.814 569.46 617.845 575.05C621.876 580.64 613.814 596.013 617.845 601.604C621.876 607.194 625.908 616.977 625.908 616.977H646.065V605.796C646.065 605.796 658.159 598.808 646.065 577.845L643.377 457.655L635.315 400.354H534.529Z" fill="#2F2E41"/>
<path d="M545.28 639.338C545.28 639.338 535.873 635.145 531.842 637.94C527.81 640.735 525.123 636.543 525.123 636.543C525.123 636.543 519.747 633.748 518.404 637.94C517.37 640.886 516.018 643.699 514.372 646.326C514.372 646.326 506.309 661.699 511.685 665.892C517.06 670.084 521.091 672.879 521.091 675.675C521.091 678.47 546.624 679.867 546.624 675.675C546.624 671.482 545.28 639.338 545.28 639.338Z" fill="#2F2E41"/>
<path d="M623.22 639.338C623.22 639.338 632.627 635.145 636.658 637.94C640.69 640.735 643.377 636.543 643.377 636.543C643.377 636.543 648.753 633.748 650.096 637.94C651.13 640.886 652.482 643.699 654.128 646.326C654.128 646.326 662.191 661.699 656.815 665.892C651.44 670.084 647.409 672.879 647.409 675.675C647.409 678.47 621.876 679.867 621.876 675.675C621.876 671.482 623.22 639.338 623.22 639.338Z" fill="#2F2E41"/>
<path d="M614.486 229.153C614.486 229.153 576.859 213.78 556.702 219.37C536.545 224.96 502.95 250.117 504.294 255.707C505.637 261.297 518.404 326.284 518.404 326.284C518.404 326.284 518.404 365.415 525.123 377.994C531.842 390.572 533.185 400.355 533.185 400.355L531.842 414.33C531.842 414.33 566.781 417.125 585.594 408.74C604.407 400.355 635.315 405.945 635.315 405.945C635.315 405.945 619.189 336.067 611.126 324.886C603.063 313.706 614.486 229.153 614.486 229.153Z" fill="#575A89"/>
<path d="M515.716 252.213L503.622 256.406C503.622 256.406 492.871 273.176 492.871 284.357C492.871 295.537 491.527 365.415 496.903 375.198C502.278 384.981 507.653 404.547 515.716 405.945L525.123 418.523L541.248 407.342L535.873 394.764L515.716 252.213Z" fill="#575A89"/>
<path d="M596.344 231.249L609.711 227.345L615.157 229.852C615.157 229.852 635.314 250.815 642.034 271.779C648.753 292.742 650.096 373.801 650.096 373.801C650.096 373.801 651.44 377.993 650.096 379.391C648.753 380.789 647.409 382.186 647.409 384.981C647.409 387.776 644.721 393.367 644.721 393.367L643.377 404.547L629.939 403.15C629.939 403.15 604.407 324.886 604.407 306.718C604.407 288.549 596.344 231.249 596.344 231.249Z" fill="#575A89"/>
<path d="M592.596 222.021C592.596 222.021 592.985 215.177 588.953 213.78C584.922 212.382 579.547 205.394 568.796 208.19C558.046 210.985 529.826 215.177 528.482 217.972C527.138 220.768 523.107 222.165 524.451 224.96C525.795 227.755 528.482 224.96 525.795 227.755C523.107 230.551 521.763 229.153 523.107 230.551C524.451 231.948 524.451 238.936 524.451 238.936C524.451 238.936 544.608 252.912 549.983 251.514C555.358 250.116 587.438 220.771 587.438 220.771L592.596 222.021Z" fill="#575A89"/>
<path opacity="0.2" d="M524.378 313.47L523.016 361.076L533.767 394.616L524.378 313.47Z" fill="black"/>
<path opacity="0.2" d="M617.122 292.671L629.281 338.588L626.471 373.823L617.122 292.671Z" fill="black"/>
<path d="M550.998 209.875C566.751 209.875 579.522 196.593 579.522 180.21C579.522 163.827 566.751 150.546 550.998 150.546C535.245 150.546 522.475 163.827 522.475 180.21C522.475 196.593 535.245 209.875 550.998 209.875Z" fill="#A0616A"/>
<path d="M526.726 178.164C528.738 183.512 530.751 188.86 532.764 194.208C535.238 200.783 538.072 207.817 543.872 211.486C551.033 216.016 560.596 213.807 567.523 208.9C579.888 200.14 586.176 183.038 582.584 167.933C578.992 152.829 565.765 140.745 550.899 138.989L550.613 144.359L544.277 138.836C542.591 142.366 537.262 143.15 534.701 140.244C536.366 143.832 534.445 148.208 531.671 150.957C528.263 154.334 518.515 158.392 518.92 164.428C519.19 168.456 525.155 173.989 526.726 178.164Z" fill="#2F2E41"/>
</g>
<defs>
<clipPath id="clip0">
<rect width="810" height="683" fill="white"/>
</clipPath>
</defs>
</svg>
